<svg width="51" height="50" viewBox="0 0 51 50" fill="none" xmlns="http://www.w3.org/2000/svg">
<path d="M25.7197 7C15.5812 7 7.71973 14.4295 7.71973 24.46C7.71973 29.707 9.87073 34.243 13.3717 37.3751C13.6642 37.6361 13.8442 38.0051 13.8532 38.4011L13.9522 41.6051C13.9594 41.8408 14.0244 42.0712 14.1415 42.2759C14.2586 42.4807 14.4242 42.6535 14.6237 42.7793C14.8233 42.905 15.0506 42.9799 15.2858 42.9972C15.5211 43.0145 15.7569 42.9738 15.9727 42.8786L19.5457 41.3036C19.8472 41.1686 20.1892 41.1461 20.5087 41.2316C22.1512 41.6816 23.8972 41.9246 25.7197 41.9246C35.8582 41.9246 43.7197 34.495 43.7197 24.4645C43.7197 14.434 35.8582 7 25.7197 7Z" fill="#FFB300"/>
<path d="M14.9109 29.5676L20.1984 21.1796C20.3973 20.8638 20.6595 20.5927 20.9685 20.3834C21.2775 20.174 21.6265 20.031 21.9936 19.9633C22.3606 19.8957 22.7377 19.9048 23.101 19.9903C23.4643 20.0757 23.806 20.2355 24.1044 20.4596L28.3119 23.6141C28.4997 23.7548 28.7283 23.8304 28.9629 23.8296C29.1975 23.8288 29.4255 23.7516 29.6124 23.6096L35.2914 19.2986C36.0474 18.7226 37.0374 19.6316 36.5334 20.4371L31.2414 28.8206C31.0425 29.1364 30.7803 29.4076 30.4713 29.6169C30.1623 29.8263 29.8133 29.9693 29.4462 30.037C29.0792 30.1046 28.7021 30.0954 28.3388 30.01C27.9755 29.9246 27.6338 29.7648 27.3354 29.5406L23.1279 26.3861C22.9401 26.2455 22.7116 26.1699 22.4769 26.1707C22.2423 26.1715 22.0143 26.2487 21.8274 26.3906L16.1484 30.7016C15.3924 31.2776 14.4024 30.3731 14.9109 29.5676Z" fill="#171524"/>
</svg>
