<svg width="57" height="50" viewBox="0 0 57 50" fill="none" xmlns="http://www.w3.org/2000/svg">
<path d="M43.2205 17.4684C43.243 17.7939 43.243 18.1194 43.243 18.4479C43.243 28.4567 35.6235 40 21.6908 40V39.994C17.5751 40 13.5449 38.8211 10.0801 36.5982C10.6785 36.6702 11.28 36.7062 11.883 36.7077C15.2937 36.7107 18.607 35.5663 21.2904 33.4589C18.0491 33.3974 15.2068 31.2841 14.2138 28.1987C15.3492 28.4177 16.5192 28.3727 17.6336 28.0683C14.0998 27.3543 11.5575 24.2495 11.5575 20.6437C11.5575 20.6107 11.5575 20.5792 11.5575 20.5477C12.6104 21.1342 13.7893 21.4597 14.9953 21.4957C11.667 19.2713 10.641 14.8436 12.6509 11.3818C16.4967 16.114 22.1708 18.9908 28.2619 19.2953C27.6515 16.6645 28.4854 13.9076 30.4533 12.0583C33.5041 9.19044 38.3023 9.33744 41.1701 12.3867C42.8665 12.0523 44.4924 11.4298 45.9803 10.5479C45.4149 12.3012 44.2314 13.7907 42.6505 14.7371C44.1519 14.5601 45.6188 14.1581 47.0002 13.5447C45.9833 15.0686 44.7024 16.396 43.2205 17.4684Z" fill="#FFB300"/>
</svg>
