<svg width="20" height="18" viewBox="0 0 20 18" fill="none" xmlns="http://www.w3.org/2000/svg">
<path d="M9.82217 0.357917C9.23408 0.356294 8.72721 0.658096 8.39495 1.2077L0.307953 14.5826C0.127673 14.8807 0.0223497 15.2206 0.00317959 15.5659C-0.0158845 15.9106 0.0510518 16.2625 0.196641 16.5831C0.343532 16.9065 0.559491 17.174 0.821082 17.3564C1.0859 17.5412 1.39787 17.6393 1.72311 17.6402L2.27118 17.6417C1.94595 17.6408 1.63399 17.5427 1.36916 17.3579C1.10757 17.1755 0.891664 16.9081 0.744719 16.5846C0.59913 16.2639 0.532197 15.9121 0.551262 15.5674C0.570432 15.2222 0.675755 14.8822 0.856035 14.5841L8.94301 1.20922C9.27534 0.659619 9.78217 0.357818 10.3703 0.359407L9.82217 0.357917Z" fill="url(#paint0_linear_16_40175)"/>
<path d="M10.2948 0.357916C10.8816 0.359502 11.3855 0.663279 11.7137 1.21333L19.6996 14.5992C19.8777 14.8976 19.9807 15.2374 19.9976 15.5818C20.0145 15.9258 19.9455 16.2763 19.7981 16.5954C19.6495 16.9172 19.4325 17.1829 19.1703 17.3635C18.905 17.5464 18.5931 17.6426 18.2686 17.6417L2.21346 17.5982C1.88894 17.5974 1.57766 17.4995 1.31342 17.3151C1.0524 17.1332 0.836968 16.8664 0.690346 16.5437C0.545077 16.2238 0.478291 15.8728 0.497313 15.529C0.516438 15.1846 0.621533 14.8454 0.801417 14.5481L8.87063 1.20564C9.2023 0.657367 9.70804 0.356331 10.2948 0.357916Z" fill="#5CC815"/>
<path d="M9.0779 1.16935L1.03363 14.6576C0.862218 14.945 0.761974 15.2728 0.743755 15.6056C0.725585 15.938 0.789333 16.2774 0.92804 16.5871C1.06727 16.8979 1.27117 17.1543 1.5176 17.3285C1.76532 17.5038 2.0572 17.5969 2.36171 17.5977L18.3672 17.6417C18.6717 17.6425 18.9641 17.551 19.2129 17.3771C19.4604 17.2043 19.6659 16.949 19.807 16.6389C19.9477 16.33 20.0135 15.991 19.9974 15.6583C19.9813 15.3256 19.8831 14.9973 19.7134 14.7088L11.7522 1.17661C11.4424 0.650169 10.9684 0.359454 10.4175 0.357916C9.86656 0.356444 9.39086 0.644616 9.0779 1.16935Z" fill="url(#paint1_linear_16_40175)"/>
<path d="M19.7134 14.7021L15.2068 7.02441C11.5726 7.24069 7.81737 9.24223 4.78675 8.34318L1.03363 14.6507C0.862218 14.9387 0.761974 15.2673 0.743755 15.6009C0.725585 15.934 0.789333 16.2742 0.92804 16.5846C1.06727 16.8962 1.27117 17.1531 1.5176 17.3277C1.76532 17.5034 2.0572 17.5967 2.36171 17.5975L18.3672 17.6416C18.6717 17.6424 18.9641 17.5507 19.2129 17.3764C19.4604 17.2032 19.6659 16.9473 19.807 16.6365C19.9477 16.3269 20.0135 15.9871 19.9974 15.6537C19.9813 15.3202 19.8831 14.9911 19.7134 14.7021Z" fill="url(#paint2_linear_16_40175)"/>
<defs>
<linearGradient id="paint0_linear_16_40175" x1="3.4145" y1="17.9622" x2="6.63175" y2="-0.299277" gradientUnits="userSpaceOnUse">
<stop stop-color="#67A000"/>
<stop offset="0.00906774" stop-color="#5DBD00"/>
<stop offset="0.0255" stop-color="#4CED00"/>
<stop offset="0.0337" stop-color="#46FF00"/>
<stop offset="0.0341" stop-color="#46FE00"/>
<stop offset="0.0607" stop-color="#52DD00"/>
<stop offset="0.0878" stop-color="#5BC200"/>
<stop offset="0.1155" stop-color="#62AF00"/>
<stop offset="0.1439" stop-color="#66A400"/>
<stop offset="0.1742" stop-color="#67A000"/>
<stop offset="0.3701" stop-color="#52B00B"/>
<stop offset="0.5843" stop-color="#40BE14"/>
<stop offset="0.7157" stop-color="#4DB40D"/>
<stop offset="0.8989" stop-color="#67A000"/>
<stop offset="0.9261" stop-color="#5DBD00"/>
<stop offset="0.9754" stop-color="#4CED00"/>
<stop offset="1" stop-color="#46FF00"/>
</linearGradient>
<linearGradient id="paint1_linear_16_40175" x1="10.3703" y1="17.6417" x2="10.3703" y2="0.357949" gradientUnits="userSpaceOnUse">
<stop offset="0.3933" stop-color="#5CC815"/>
<stop offset="0.5128" stop-color="#59C015"/>
<stop offset="0.694" stop-color="#52AC13"/>
<stop offset="0.9132" stop-color="#61BB19"/>
<stop offset="1" stop-color="#6CC91B"/>
</linearGradient>
<linearGradient id="paint2_linear_16_40175" x1="10.3703" y1="17.6416" x2="10.3703" y2="7.02441" gradientUnits="userSpaceOnUse">
<stop offset="0.00561798" stop-color="#4AA011"/>
<stop offset="0.0638" stop-color="#4CA511"/>
<stop offset="0.5393" stop-color="#4CA114"/>
</linearGradient>
</defs>
</svg>
