<svg xmlns="http://www.w3.org/2000/svg" width="20" height="18" viewBox="0 0 20 18" fill="none">
  <path d="M10.1775 17.28C10.7656 17.2816 11.2725 16.9798 11.6047 16.4304L19.6919 3.05839C19.8722 2.7604 19.9776 2.4205 19.9965 2.07534C20.0157 1.73071 19.9488 1.37896 19.8033 1.05839C19.6564 0.734975 19.4403 0.467597 19.1788 0.285252C18.914 0.10049 18.6019 0.00241644 18.2767 0.00152275L17.7286 0C18.0538 0.000893687 18.3658 0.0989675 18.6306 0.283762C18.8921 0.466074 19.1082 0.733485 19.2551 1.05687C19.4006 1.37744 19.4675 1.72918 19.4486 2.07382C19.4294 2.41894 19.324 2.75888 19.1437 3.05691L11.0567 16.4289C10.7243 16.9784 10.2175 17.2801 9.62939 17.2785L10.1775 17.28Z" fill="#C81500"/>
  <path d="M9.70538 17.28C9.11861 17.2784 8.61464 16.9747 8.28648 16.4248L0.300458 3.04177C0.122471 2.74351 0.0193905 2.40377 0.00249136 2.05948C-0.0143747 1.71549 0.0546433 1.36505 0.201973 1.04606C0.35056 0.72425 0.567637 0.458643 0.829789 0.27816C1.09518 0.0952335 1.40697 -0.000885374 1.7315 6.14575e-06L17.7867 0.0434593C18.1113 0.0443178 18.4226 0.142187 18.6868 0.3265C18.948 0.50837 19.1632 0.775132 19.3098 1.09773C19.4553 1.41755 19.5221 1.76845 19.5029 2.11221C19.4837 2.45654 19.3785 2.79565 19.199 3.09292L11.1295 16.4325C10.7979 16.9806 10.2921 17.2815 9.70538 17.28Z" fill="#C81500"/>
  <path d="M10.9219 16.2335L18.9662 2.94081C19.1376 2.65761 19.2377 2.33455 19.2562 2.00655C19.2743 1.67895 19.2106 1.34448 19.0718 1.03926C18.9325 0.732916 18.7286 0.480305 18.4822 0.308624C18.2345 0.135887 17.9426 0.044146 17.6381 0.0433219L1.63255 5.59955e-06C1.32811 -0.000818525 1.03569 0.0893411 0.786876 0.260726C0.539414 0.431056 0.333933 0.682611 0.192762 0.988263C0.0521195 1.29266 -0.0137099 1.62676 0.00237583 1.9546C0.0184946 2.2825 0.116693 2.60608 0.286402 2.89034L8.24766 16.2263C8.55735 16.7451 9.03134 17.0316 9.58228 17.0331C10.1332 17.0346 10.6089 16.7506 10.9219 16.2335Z" fill="#C81500"/>
  <path d="M0.286402 2.93888L4.79297 10.6149C8.42715 10.3986 12.1824 8.39752 15.213 9.29638L18.9662 2.99026C19.1376 2.7023 19.2377 2.37381 19.2562 2.04029C19.2743 1.70718 19.2106 1.36709 19.0718 1.05673C18.9325 0.74524 18.7286 0.488382 18.4822 0.31378C18.2345 0.138172 17.9426 0.0448884 17.6381 0.0440504L1.63255 5.69371e-06C1.32811 -0.000832288 1.03569 0.0908433 0.786876 0.26511C0.539414 0.438304 0.333933 0.694089 0.192762 1.00488C0.0521195 1.3144 -0.0137099 1.65411 0.00237583 1.98743C0.0184946 2.32088 0.116693 2.64991 0.286402 2.93888Z" fill="#C81500"/>
  <defs>
    <linearGradient id="paint0_linear_23_41274" x1="16.5853" y1="-0.320469" x2="13.3694" y2="17.9373" gradientUnits="userSpaceOnUse">
      <stop stop-color="#A02A00"/>
      <stop offset="0.00906774" stop-color="#BD1D02"/>
      <stop offset="0.0255" stop-color="#ED0805"/>
      <stop offset="0.0337" stop-color="#FF0006"/>
      <stop offset="0.0341" stop-color="#FE0006"/>
      <stop offset="0.0607" stop-color="#DD0F04"/>
      <stop offset="0.0878" stop-color="#C21B02"/>
      <stop offset="0.1155" stop-color="#AF2301"/>
      <stop offset="0.1439" stop-color="#A42800"/>
      <stop offset="0.1742" stop-color="#A02A00"/>
      <stop offset="0.3156" stop-color="#AC2A00"/>
      <stop offset="0.5843" stop-color="#BE2900"/>
      <stop offset="0.7468" stop-color="#B12900"/>
      <stop offset="0.8989" stop-color="#A02A00"/>
      <stop offset="0.9261" stop-color="#BD1D02"/>
      <stop offset="0.9754" stop-color="#ED0805"/>
      <stop offset="1" stop-color="#FF0006"/>
    </linearGradient>
    <linearGradient id="paint1_linear_23_41274" x1="9.62951" y1="5.59958e-06" x2="9.62951" y2="17.0331" gradientUnits="userSpaceOnUse">
      <stop offset="0.3933" stop-color="#C81500"/>
      <stop offset="0.5457" stop-color="#D01A05"/>
      <stop offset="0.7761" stop-color="#E42914"/>
      <stop offset="1" stop-color="#FF3B26"/>
    </linearGradient>
    <linearGradient id="paint2_linear_23_41274" x1="9.62951" y1="5.69373e-06" x2="9.62951" y2="10.6149" gradientUnits="userSpaceOnUse">
      <stop offset="0.00561798" stop-color="#A01E00"/>
      <stop offset="0.0638" stop-color="#A51D00"/>
      <stop offset="0.5393" stop-color="#C81500"/>
    </linearGradient>
  </defs>
</svg>