<svg width="30" height="31" viewBox="0 0 30 31" fill="none" xmlns="http://www.w3.org/2000/svg">
<path d="M18.75 13L17.1339 14.6161C16.6457 15.1043 16.6457 15.8957 17.1339 16.3839L18.75 18M17.5 15.5L27.5 15.5M7.5 25.5C4.73858 25.5 2.5 23.2614 2.5 20.5V10.5C2.5 7.73858 4.73858 5.5 7.5 5.5M7.5 25.5C10.2614 25.5 12.5 23.2614 12.5 20.5V10.5C12.5 7.73858 10.2614 5.5 7.5 5.5M7.5 25.5H17.5C20.2614 25.5 22.5 23.2614 22.5 20.5M7.5 5.5H17.5C20.2614 5.5 22.5 7.73858 22.5 10.5" stroke="white" stroke-width="1.8143" stroke-linecap="round"/>
</svg>
