<svg width="58" height="44" viewBox="0 0 58 44" fill="none" xmlns="http://www.w3.org/2000/svg">
<g clip-path="url(#clip0_401_231)">
<path fill-rule="evenodd" clip-rule="evenodd" d="M49.4653 11.4668L49.4856 10.8554C49.4974 10.5057 49.5482 10.3838 49.1249 10.5362L47.4901 11.1239C47.2175 11.2221 46.9034 11.4253 47.3547 11.5752L49.7032 12.3559C50.2391 12.5337 50.019 12.1815 49.8225 11.9274L49.4653 11.4668Z" fill="url(#paint0_linear_401_231)"/>
<path fill-rule="evenodd" clip-rule="evenodd" d="M28.304 15.8971C27.9653 15.5228 27.6174 15.179 27.2626 14.8725C27.3659 14.8615 27.454 14.8522 27.5319 14.8437C27.7173 14.8242 27.8443 14.8107 27.9713 14.798C29.0439 14.6879 30.0929 14.4889 31.0098 13.8877C31.726 13.4203 31.8835 12.8073 31.4466 12.0867C30.1615 9.96471 28.3251 8.57942 25.8073 8.14334C25.3078 8.05782 24.8007 8.01125 24.2842 7.96383C24.0379 7.94097 23.7898 7.91895 23.5392 7.89185C23.5392 7.76823 23.5401 7.64375 23.5401 7.51928C23.5418 7.20005 23.5435 6.87913 23.5324 6.55821C23.4122 2.85704 21.3109 0.619063 17.5562 0.161815C15.1399 -0.130316 12.7152 -0.0295522 10.4023 0.475961C9.19415 0.740996 5.04996 1.97726 5.68662 2.01875C6.81093 2.08903 10.2914 2.58862 11.0576 2.7368C12.2868 2.97305 13.0039 3.2855 14.2518 3.96714C15.8316 4.8266 16.2854 5.80714 15.3973 7.34824C12.225 7.01377 10.5953 9.06207 9.05531 11.2602C9.00789 11.2332 8.96048 11.2061 8.91053 11.179C8.98334 10.8978 9.05531 10.6167 9.12811 10.3331C9.20939 10.0164 9.29151 9.69544 9.37702 9.36521C8.02074 9.66919 7.24101 10.5701 6.71441 11.7124C6.52646 12.1206 6.31311 12.1959 5.89489 12.0918C4.96784 11.8589 4.42939 11.2272 3.94598 10.477C3.47695 9.75133 3.23397 9.09848 3.1527 8.22124C3.08497 7.49218 2.7133 2.86381 2.70568 2.51495C2.70568 2.51495 0.943874 7.34315 0.678883 8.06798C0.483314 8.60651 0.299599 9.15691 0.176839 9.71492C-0.419179 12.3915 0.471462 14.5931 2.78018 16.1249C3.18233 16.3899 3.61072 16.6194 4.01963 16.8378C4.20673 16.9378 4.3896 17.036 4.56401 17.1342C4.57332 17.3264 4.56909 17.5203 4.56401 17.7125C4.55469 18.1351 4.54453 18.5491 4.68084 18.9115C5.01187 19.7922 4.87641 20.5763 4.54877 21.39C4.4641 21.5991 4.3913 21.8168 4.34473 22.0352C4.26515 22.3993 4.08397 22.6085 3.69876 22.7584C2.11474 23.3638 1.7761 25.3816 3.02486 26.5086C3.25683 26.7186 3.44139 27.0065 3.56077 27.2919C3.98323 28.2995 4.59279 29.0904 5.78313 29.22C5.97362 29.2411 6.20305 29.1302 6.42825 28.9693C6.7542 28.9464 7.03528 28.982 7.32143 29.1226C7.74813 29.336 8.25187 29.3097 8.71412 29.1124C9.30675 28.8592 9.88414 28.5764 10.4615 28.2944C10.5801 28.2369 10.6977 28.1784 10.8163 28.1217C12.4333 27.3334 13.1081 27.501 13.7549 28.8652C13.7608 28.8779 13.7752 28.888 13.7904 28.8982C13.7972 28.9024 13.8048 28.9075 13.8116 28.9134C13.5398 27.2766 12.435 26.7864 10.6038 27.4866C10.4954 27.5281 10.3887 27.5739 10.2829 27.6187C10.15 27.6755 10.0179 27.7322 9.88076 27.7805C9.77324 27.8186 9.66487 27.8567 9.55735 27.8956C9.17552 28.032 8.79201 28.17 8.40002 28.2716C7.97248 28.3817 7.59405 28.3021 7.3934 28.0878C7.97841 27.5628 8.52702 27.0692 9.10949 26.5459L9.24664 26.4231C10.3642 27.1064 11.6104 26.9837 12.799 26.2614C13.4535 25.8626 14.1011 25.4079 14.6235 24.86C15.2923 24.1614 15.9087 23.4163 16.5242 22.672C16.74 22.4112 16.9551 22.1504 17.1735 21.8913C17.2285 21.8269 17.2709 21.749 17.3132 21.6728C17.331 21.6406 17.3479 21.6093 17.3665 21.578C17.3191 22.6982 16.8069 23.5679 16.1787 24.3663C15.7487 24.9134 15.2915 25.4392 14.7971 26.0082C14.5846 26.2529 14.3644 26.5061 14.1375 26.772C14.4457 26.7169 14.7369 26.6687 15.0172 26.6221C15.5963 26.5256 16.1246 26.4384 16.6444 26.3164C20.019 25.5188 21.9687 23.611 22.3607 20.6178C22.486 19.6745 22.4276 18.6948 22.3379 17.7413C22.2795 17.1198 22.1482 16.5059 22.0085 15.8539C21.9459 15.5592 21.8807 15.2569 21.8206 14.9428C24.8794 18.1554 25.5618 21.9285 25.1258 26.0218C25.0428 25.5256 24.9844 25.0243 24.926 24.5205C24.76 23.0928 24.5933 21.6525 23.8474 20.2943C23.7915 20.8252 23.7433 21.3451 23.6958 21.8566C23.5926 22.97 23.4935 24.0437 23.3259 25.1081C23.0075 27.1335 22.3345 28.9752 21.9146 29.4486C22.0534 27.9143 22.1956 26.319 22.3362 24.7228C22.3167 24.7177 22.2972 24.7127 22.2778 24.7076C22.2168 24.6915 22.155 24.6754 22.0932 24.6576C22.0517 24.7169 22.0102 24.7753 21.9679 24.8338C21.8722 24.9675 21.7766 25.1013 21.6868 25.2385C19.6922 28.2411 19.1986 31.5053 19.9208 34.9677C20.008 35.3826 20.1807 35.8611 20.4804 36.1422C23.6552 39.1194 27.1958 41.6063 31.036 43.6868C31.3442 37.3056 34.1736 26.0082 34.1736 26.0082C34.1736 26.0082 32.3203 20.1707 28.304 15.8971ZM3.11883 14.8903C1.7871 13.9741 1.11404 12.7268 1.03362 11.0579C0.974352 9.83262 1.71683 7.28304 2.14438 5.81476C2.27221 5.37614 2.37127 5.03405 2.4136 4.85285L2.32301 6.0383C2.28576 6.3643 2.10543 8.67172 2.22904 9.40755C2.59139 11.5651 3.81306 13.2323 6.31819 13.5516C6.47143 13.571 6.72372 13.7802 6.71949 13.8928C6.69409 14.5719 6.65599 15.2595 6.52392 15.9259C6.47228 16.1918 6.36053 16.4458 6.24877 16.6998C6.16072 16.9005 6.07268 17.102 6.01341 17.3095C5.92536 17.6143 5.87457 17.9301 5.82038 18.2672C5.79499 18.423 5.76959 18.5847 5.73911 18.7507C5.28024 17.8895 5.53761 17.1088 5.79922 16.3975C5.51222 16.2383 5.22352 16.0868 4.93736 15.9369C4.30748 15.6067 3.6886 15.2823 3.11883 14.8903ZM8.45675 25.015C8.32722 24.8575 8.20192 24.7059 8.04445 24.6C7.92761 24.5221 7.66431 24.5552 7.53394 24.6407C7.48483 24.6712 7.50515 24.8075 7.52462 24.9421C7.53309 24.9989 7.54155 25.0556 7.5441 25.1039C7.54833 25.1725 7.55341 25.241 7.55849 25.3105C7.56357 25.3808 7.56865 25.4519 7.57373 25.5239C7.5187 25.5213 7.45351 25.5247 7.38747 25.5281C7.25117 25.5357 7.11655 25.5425 7.08946 25.4951C7.08438 25.4866 7.08015 25.4773 7.07507 25.4688C6.9303 25.2029 6.71695 24.81 6.82278 24.6568C7.00565 24.3867 7.41202 24.1394 7.74474 24.1123C8.29843 24.0657 8.61422 24.5298 8.62607 25.2165C8.5685 25.1504 8.51178 25.0827 8.45675 25.015ZM9.63608 24.0259C9.3821 23.7406 9.1315 23.4578 8.82503 23.2605C8.27726 22.9108 7.56865 22.9463 7.12671 23.4002C6.65176 23.8845 6.11501 23.8964 5.56555 23.9091C5.41231 23.9125 5.25738 23.9159 5.1033 23.9294C5.26839 22.8532 5.30903 22.8337 6.2674 22.9404C6.43249 22.959 6.63314 22.8278 6.78976 22.7236C7.4806 22.2689 8.19768 22.2071 8.92493 22.5966C9.67334 22.9954 9.97727 23.65 9.97304 24.3917C9.85705 24.274 9.74614 24.1496 9.63608 24.0259ZM15.1924 14.3492C14.8089 16.2781 14.6845 16.9047 12.91 17.196C12.4672 15.6126 13.1563 14.7438 15.2119 14.251C15.206 14.284 15.1992 14.317 15.1924 14.3492ZM19.2621 10.4804C19.1207 10.4982 18.9793 10.516 18.838 10.5337C18.1251 10.6235 17.4207 10.7708 16.7019 10.9207C16.3633 10.9918 16.0213 11.063 15.6733 11.1298C15.8105 10.8563 15.9485 10.593 16.0839 10.3347C16.365 9.7979 16.6351 9.28392 16.8586 8.74962C18.1573 5.61831 16.8526 3.48618 13.8666 2.5158C13.075 2.26008 12.0811 2.09411 11.2167 1.94932C10.8688 1.89089 10.5411 1.8367 10.2567 1.78081C11.0449 1.67073 12.1302 1.54457 13.2816 1.4438C14.7429 1.3151 16.1593 1.31933 17.6645 1.42009C20.692 1.62162 22.2625 3.61489 22.3057 6.58277C22.315 7.16872 22.2701 7.75468 22.2236 8.36519C22.2024 8.64631 22.1804 8.93252 22.1626 9.22634C24.9776 8.9359 27.6021 9.29832 29.5366 11.6235C27.9916 10.4406 26.1976 9.92492 24.2809 9.99858C22.6037 10.0595 20.9291 10.2704 19.2621 10.4804ZM25.754 12.4169C25.8463 11.93 25.5017 11.825 25.196 11.7607C24.5061 11.615 23.8068 11.5109 23.1083 11.4067C23.0423 11.3966 22.9762 11.3873 22.9093 11.3771C22.7917 11.3593 22.6731 11.3483 22.5546 11.3373C22.3658 11.3195 22.1762 11.3017 21.9899 11.2569C24.2597 10.6159 26.3263 11.1315 28.3074 12.4093C28.1211 12.4474 27.9357 12.488 27.7503 12.5287C27.2711 12.6337 26.7936 12.7378 26.3093 12.7937C26.1299 12.8115 25.7353 12.5126 25.754 12.4169Z" fill="url(#paint1_linear_401_231)"/>
<path fill-rule="evenodd" clip-rule="evenodd" d="M56.7817 10.4736C57.1534 10.328 57.5623 10.2484 57.8485 10.5744C58.0642 10.8194 58.003 11.1639 57.9494 11.4658C57.9441 11.4957 57.9389 11.5252 57.934 11.5541L57.7215 12.7776C57.9645 13.5008 57.8984 14.19 57.4353 14.8361C57.7987 16.5879 57.0212 17.0329 55.9112 17.6683C55.7667 17.751 55.6166 17.8369 55.4627 17.9293C54.4815 18.5178 53.5621 19.2367 52.7019 19.981L52.9669 18.8455L50.0105 20.7626L49.6989 19.1961C48.3992 21.0669 47.6583 23.0083 47.2707 25.0346H47.2558C46.3049 25.3823 44.2702 26.3811 43.7377 27.5949C44.3716 27.0575 45.9056 26.0208 46.9705 26.1725H47.0899C46.9166 27.5262 46.8796 28.9177 46.9204 30.3512L46.8806 30.524L45.5886 32.4749C43.0589 36.2946 39.7868 39.5673 35.9677 42.0974L33.0926 44.0018C33.2527 41.167 34.3706 35.2068 35.184 30.8706L35.184 30.8705L35.184 30.8704C35.6695 28.2824 36.0464 26.2728 36.0464 25.8516L34.575 22.7524C33.2001 20.0843 30.1573 15.5279 30.1573 15.5279L30.1519 15.5166L30.1519 15.5166L30.1519 15.5166C30.1491 15.5109 30.1463 15.5052 30.1438 15.4991C30.8245 15.3873 31.772 14.8085 32.1377 14.2242L37.0412 21.6008L37.1733 21.7185C37.3383 21.6135 37.5043 21.5102 37.6728 21.4112C38.0173 21.2088 38.2993 20.9116 38.4999 20.5653L43.0386 18.8006L42.225 21.1097L46.6918 18.3739L46.475 19.1808C49.3358 18.2782 51.421 16.7947 51.7723 14.0139C52.1592 14.7709 52.1711 15.5643 51.9188 16.3831C51.691 17.119 51.5446 17.7981 52.453 17.7413C53.0499 17.7041 54.2504 17.2536 54.8074 17.0097C55.1774 16.848 55.5321 16.6634 55.8657 16.4458C56.1781 16.2426 56.1578 15.6321 55.6583 15.8734C54.9395 16.2214 54.2343 16.4712 53.5561 16.5068C55.1156 15.6939 56.4549 14.732 57.0179 13.2434L55.886 12.4982L55.9594 12.4188C56.2436 12.1121 56.5029 11.8323 56.4304 11.5905C56.3703 11.3907 55.9106 11.2611 55.2401 11.0807C53.9955 10.7708 52.7552 10.4939 51.5717 10.6108L51.3973 11.9283C50.8986 10.2458 50.1722 8.68866 48.3122 8.32625L46.2244 7.91896C45.5878 7.79618 45.1966 8.02395 44.9249 8.46003C44.7022 8.81749 44.6794 9.08131 44.6491 9.4316C44.6454 9.47545 44.6415 9.52067 44.637 9.56759C44.5674 10.3057 44.3313 10.9031 44.1053 11.4746L44.1053 11.4746L44.1053 11.4747C44.0786 11.5424 44.052 11.6097 44.0258 11.6769C44.5388 9.4465 44.0562 7.57009 42.5527 6.05694C43.9343 8.89696 43.4044 10.9741 42.2292 12.7937C42.3918 10.3805 41.706 8.88595 40.1127 8.37536C38.1037 8.4177 35.3031 10.3381 33.3516 12.168C33.1857 12.3221 33.0214 12.477 32.8581 12.6337C32.8665 12.5439 32.8699 12.4516 32.8657 12.3593C32.8267 11.4889 32.3585 10.7099 31.6465 10.3034C33.0502 8.98587 34.7054 7.73521 36.8075 6.59971C37.3129 4.99341 38.2078 4.20424 40.0458 5.39054C41.6332 4.22286 42.9243 4.78172 43.9775 6.72757C45.6995 6.87829 47.4072 7.1374 49.1055 7.46679C50.5278 7.74283 50.9604 8.38044 51.1534 9.84448C52.6528 9.86311 54.1242 10.1171 55.5652 10.6328C56.0162 10.816 56.2156 10.7252 56.5253 10.5844C56.6021 10.5494 56.6858 10.5113 56.7817 10.4736Z" fill="url(#paint2_linear_401_231)"/>
</g>
<defs>
<linearGradient id="paint0_linear_401_231" x1="48.5826" y1="12.484" x2="48.5826" y2="10.4729" gradientUnits="userSpaceOnUse">
<stop offset="0.00135424" stop-color="#6C0B00"/>
<stop offset="1" stop-color="#FF2500"/>
</linearGradient>
<linearGradient id="paint1_linear_401_231" x1="17.0853" y1="-2.08083" x2="17.0853" y2="43.6868" gradientUnits="userSpaceOnUse">
<stop stop-color="#16C83E"/>
<stop offset="1" stop-color="#17792D"/>
</linearGradient>
<linearGradient id="paint2_linear_401_231" x1="44.0684" y1="45.6219" x2="44.0684" y2="4.80917" gradientUnits="userSpaceOnUse">
<stop offset="0.00135424" stop-color="#6C0B00"/>
<stop offset="1" stop-color="#FF2500"/>
</linearGradient>
<clipPath id="clip0_401_231">
<rect width="58" height="44" fill="white"/>
</clipPath>
</defs>
</svg>
