<svg width="50" height="50" viewBox="0 0 50 50" fill="none" xmlns="http://www.w3.org/2000/svg">
<g clip-path="url(#clip0_73_1573)">
<path d="M33.7399 34C34.5339 34.0022 35.2182 33.5831 35.6667 32.82L46.5844 14.2478C46.8279 13.8339 46.9701 13.3618 46.9956 12.8824C47.0216 12.4038 46.9312 11.9152 46.7348 11.47C46.5366 11.0208 46.2448 10.6494 45.8918 10.3962C45.5343 10.1396 45.113 10.0034 44.6739 10.0021L43.934 10C44.373 10.0012 44.7942 10.1375 45.1517 10.3941C45.5048 10.6473 45.7965 11.0187 45.9947 11.4679C46.1911 11.9131 46.2815 12.4016 46.256 12.8803C46.2301 13.3596 46.0878 13.8318 45.8444 14.2457L34.9268 32.8179C34.4782 33.5811 33.7939 34.0001 33 33.9979L33.7399 34Z" fill="url(#paint0_linear_73_1573)"/>
<path d="M33.434 34C32.6218 33.9978 31.9242 33.576 31.47 32.8122L20.4159 14.2247C20.1695 13.8104 20.0268 13.3386 20.0034 12.8604C19.9801 12.3826 20.0756 11.8959 20.2796 11.4529C20.4852 11.0059 20.7857 10.637 21.1486 10.3863C21.5159 10.1323 21.9475 9.99877 22.3967 10L44.6201 10.0604C45.0693 10.0616 45.5002 10.1975 45.8659 10.4535C46.2274 10.7061 46.5254 11.0766 46.7282 11.5246C46.9296 11.9688 47.0221 12.4562 46.9955 12.9336C46.969 13.4119 46.8234 13.8828 46.5749 14.2957L35.4053 32.8229C34.9463 33.5842 34.2462 34.0021 33.434 34Z" fill="#C81500"/>
<path d="M35.3117 33.8733L46.5892 15.1437C46.8295 14.7446 46.9698 14.2894 46.9957 13.8273C47.0212 13.3657 46.9318 12.8944 46.7374 12.4643C46.542 12.0327 46.2562 11.6768 45.9107 11.4349C45.5634 11.1915 45.1542 11.0622 44.7273 11.061L22.2887 11C21.8619 10.9988 21.452 11.1259 21.1031 11.3674C20.7562 11.6074 20.4681 11.9618 20.2702 12.3925C20.0731 12.8214 19.9808 13.2921 20.0033 13.7541C20.0259 14.2161 20.1636 14.672 20.4015 15.0725L31.5626 33.8632C31.9968 34.5941 32.6613 34.9979 33.4337 35C34.2061 35.002 34.873 34.6019 35.3117 33.8733Z" fill="#A02A00"/>
<path d="M20.4015 15.153L26.7194 26C31.8143 25.6944 37.0789 22.8667 41.3276 24.1368L46.5892 15.2256C46.8295 14.8187 46.9698 14.3545 46.9957 13.8832C47.0212 13.4124 46.9318 12.9319 46.7374 12.4933C46.542 12.0531 46.2562 11.6901 45.9107 11.4434C45.5634 11.1953 45.1542 11.0634 44.7273 11.0622L22.2887 11C21.8619 10.9988 21.452 11.1284 21.1031 11.3746C20.7562 11.6194 20.4681 11.9808 20.2702 12.42C20.0731 12.8574 19.9808 13.3375 20.0033 13.8085C20.0259 14.2797 20.1636 14.7446 20.4015 15.153Z" fill="#BD1D02"/>
<path d="M15.2601 15C14.4661 14.9978 13.7819 15.4168 13.3333 16.18L2.41574 34.7522C2.17236 35.1661 2.03017 35.6382 2.00429 36.1176C1.97856 36.5963 2.06892 37.0848 2.26547 37.5301C2.46377 37.9792 2.75532 38.3506 3.10847 38.6038C3.46599 38.8605 3.88714 38.9967 4.32622 38.9979L5.06613 39C4.62706 38.9988 4.2059 38.8625 3.84839 38.6059C3.49524 38.3527 3.20376 37.9813 3.00538 37.5321C2.80883 37.0869 2.71847 36.5984 2.74421 36.1197C2.77009 35.6403 2.91228 35.1682 3.15566 34.7543L14.0732 16.1821C14.5218 15.4189 15.2061 14.9999 16 15.0021L15.2601 15Z" fill="url(#paint3_linear_73_1573)"/>
<path d="M16.566 15C17.3782 15.0022 18.0757 15.424 18.53 16.1878L29.5841 34.7753C29.8305 35.1896 29.9732 35.6614 29.9965 36.1396C30.0199 36.6174 29.9244 37.1041 29.7204 37.5471C29.5147 37.9941 29.2143 38.363 28.8514 38.6137C28.4841 38.8677 28.0525 39.0012 27.6033 39L5.37987 38.9396C4.93067 38.9384 4.49979 38.8025 4.13404 38.5465C3.77274 38.2939 3.47454 37.9234 3.27159 37.4754C3.07051 37.0312 2.97806 36.5438 3.00439 36.0664C3.03086 35.5881 3.17634 35.1172 3.42533 34.7043L14.5947 16.1771C15.0538 15.4158 15.7538 14.9978 16.566 15Z" fill="#5CC815"/>
<path d="M14.6882 16.1267L3.41063 34.8563C3.17033 35.2554 3.02979 35.7106 3.00425 36.1727C2.97878 36.6343 3.06815 37.1056 3.26261 37.5357C3.45779 37.9673 3.74365 38.3232 4.08913 38.5651C4.43641 38.8085 4.84562 38.9378 5.27252 38.939L27.7113 39C28.1381 39.0012 28.548 38.8741 28.8968 38.6326C29.2438 38.3926 29.5318 38.0382 29.7298 37.6075C29.9269 37.1786 30.0192 36.7079 29.9967 36.2459C29.9741 35.7839 29.8364 35.328 29.5985 34.9275L18.4373 16.1368C18.0031 15.4058 17.3386 15.0021 16.5662 15C15.7939 14.998 15.127 15.3981 14.6882 16.1267Z" fill="url(#paint4_linear_73_1573)"/>
<path d="M29.5985 35.847L23.2806 25C18.1857 25.3056 12.921 28.1333 8.67228 26.8632L3.41063 35.7744C3.17033 36.1813 3.02979 36.6455 3.00425 37.1168C2.97878 37.5876 3.06815 38.0681 3.26261 38.5067C3.45779 38.9469 3.74365 39.3099 4.08913 39.5566C4.43641 39.8047 4.84562 39.9366 5.27252 39.9378L27.7113 40C28.1381 40.0012 28.548 39.8716 28.8968 39.6254C29.2438 39.3806 29.5318 39.0192 29.7298 38.58C29.9269 38.1426 30.0192 37.6625 29.9967 37.1915C29.9741 36.7203 29.8364 36.2554 29.5985 35.847Z" fill="url(#paint5_linear_73_1573)"/>
</g>
<defs>
<linearGradient id="paint0_linear_73_1573" x1="42.3905" y1="9.5549" x2="37.8034" y2="34.8684" gradientUnits="userSpaceOnUse">
<stop stop-color="#A02A00"/>
<stop offset="0.00906774" stop-color="#BD1D02"/>
<stop offset="0.0255" stop-color="#ED0805"/>
<stop offset="0.0337" stop-color="#FF0006"/>
<stop offset="0.0341" stop-color="#FE0006"/>
<stop offset="0.0607" stop-color="#DD0F04"/>
<stop offset="0.0878" stop-color="#C21B02"/>
<stop offset="0.1155" stop-color="#AF2301"/>
<stop offset="0.1439" stop-color="#A42800"/>
<stop offset="0.1742" stop-color="#A02A00"/>
<stop offset="0.3156" stop-color="#AC2A00"/>
<stop offset="0.5843" stop-color="#BE2900"/>
<stop offset="0.7468" stop-color="#B12900"/>
<stop offset="0.8989" stop-color="#A02A00"/>
<stop offset="0.9261" stop-color="#BD1D02"/>
<stop offset="0.9754" stop-color="#ED0805"/>
<stop offset="1" stop-color="#FF0006"/>
</linearGradient>
<linearGradient id="paint1_linear_73_1573" x1="33.4999" y1="11" x2="33.4999" y2="34.9999" gradientUnits="userSpaceOnUse">
<stop offset="0.3933" stop-color="#C81500"/>
<stop offset="0.5457" stop-color="#D01A05"/>
<stop offset="0.7761" stop-color="#E42914"/>
<stop offset="1" stop-color="#FF3B26"/>
</linearGradient>
<linearGradient id="paint2_linear_73_1573" x1="33.4999" y1="11" x2="33.4999" y2="26" gradientUnits="userSpaceOnUse">
<stop offset="0.00561798" stop-color="#A01E00"/>
<stop offset="0.0638" stop-color="#A51D00"/>
<stop offset="0.5393" stop-color="#C81500"/>
</linearGradient>
<linearGradient id="paint3_linear_73_1573" x1="6.60962" y1="39.4451" x2="11.1967" y2="14.1316" gradientUnits="userSpaceOnUse">
<stop stop-color="#67A000"/>
<stop offset="0.00906774" stop-color="#5DBD00"/>
<stop offset="0.0255" stop-color="#4CED00"/>
<stop offset="0.0337" stop-color="#46FF00"/>
<stop offset="0.0341" stop-color="#46FE00"/>
<stop offset="0.0607" stop-color="#52DD00"/>
<stop offset="0.0878" stop-color="#5BC200"/>
<stop offset="0.1155" stop-color="#62AF00"/>
<stop offset="0.1439" stop-color="#66A400"/>
<stop offset="0.1742" stop-color="#67A000"/>
<stop offset="0.3701" stop-color="#52B00B"/>
<stop offset="0.5843" stop-color="#40BE14"/>
<stop offset="0.7157" stop-color="#4DB40D"/>
<stop offset="0.8989" stop-color="#67A000"/>
<stop offset="0.9261" stop-color="#5DBD00"/>
<stop offset="0.9754" stop-color="#4CED00"/>
<stop offset="1" stop-color="#46FF00"/>
</linearGradient>
<linearGradient id="paint4_linear_73_1573" x1="16.5" y1="39" x2="16.5" y2="15.0001" gradientUnits="userSpaceOnUse">
<stop offset="0.3933" stop-color="#5CC815"/>
<stop offset="0.5128" stop-color="#59C015"/>
<stop offset="0.694" stop-color="#52AC13"/>
<stop offset="0.9132" stop-color="#468911"/>
<stop offset="1" stop-color="#417A10"/>
</linearGradient>
<linearGradient id="paint5_linear_73_1573" x1="16.5" y1="40" x2="16.5" y2="25" gradientUnits="userSpaceOnUse">
<stop offset="0.00561798" stop-color="#4AA011"/>
<stop offset="0.0638" stop-color="#4CA511"/>
<stop offset="0.5393" stop-color="#5CC815"/>
</linearGradient>
<clipPath id="clip0_73_1573">
<rect width="50" height="50" fill="white"/>
</clipPath>
</defs>
</svg>
