<svg width="27" height="27" viewBox="0 0 27 27" fill="none" xmlns="http://www.w3.org/2000/svg">
<path d="M25.5834 13.4993C25.5834 20.1728 20.1735 25.5827 13.5001 25.5827M25.5834 13.4993C25.5834 6.82591 20.1735 1.41602 13.5001 1.41602M25.5834 13.4993C25.5834 11.4973 20.1735 9.87435 13.5001 9.87435C6.82664 9.87435 1.41675 11.4973 1.41675 13.4993M25.5834 13.4993C25.5834 15.5014 20.1735 17.1243 13.5001 17.1243C6.82664 17.1243 1.41675 15.5014 1.41675 13.4993M13.5001 25.5827C6.82664 25.5827 1.41675 20.1728 1.41675 13.4993M13.5001 25.5827C16.1695 25.5827 18.3334 20.1728 18.3334 13.4993C18.3334 6.82591 16.1695 1.41602 13.5001 1.41602M13.5001 25.5827C10.8307 25.5827 8.66675 20.1728 8.66675 13.4993C8.66675 6.82591 10.8307 1.41602 13.5001 1.41602M1.41675 13.4993C1.41675 6.82591 6.82664 1.41602 13.5001 1.41602" stroke="white" stroke-width="1.8143"/>
</svg>
