<svg width="44" height="44" viewBox="0 0 44 44" fill="none" xmlns="http://www.w3.org/2000/svg">
<rect x="1" y="1" width="42" height="42" rx="9" stroke="#E6E1DF" stroke-width="2"/>
<path fill-rule="evenodd" clip-rule="evenodd" d="M11 22C11 17.6059 11 15.4089 12.0471 13.8265C12.5146 13.1198 13.1198 12.5146 13.8265 12.0471C15.4089 11 17.6059 11 22 11C26.3941 11 28.5911 11 30.1735 12.0471C30.8802 12.5146 31.4854 13.1198 31.9529 13.8265C33 15.4089 33 17.6059 33 22C33 26.3941 33 28.5911 31.9529 30.1735C31.4854 30.8802 30.8802 31.4854 30.1735 31.9529C28.5911 33 26.3941 33 22 33C17.6059 33 15.4089 33 13.8265 31.9529C13.1198 31.4854 12.5146 30.8802 12.0471 30.1735C11 28.5911 11 26.3941 11 22ZM27.6946 22.0003C27.6946 25.1454 25.145 27.6951 21.9998 27.6951C18.8546 27.6951 16.305 25.1454 16.305 22.0003C16.305 18.8551 18.8546 16.3054 21.9998 16.3054C25.145 16.3054 27.6946 18.8551 27.6946 22.0003ZM21.9998 25.7684C24.0809 25.7684 25.7679 24.0814 25.7679 22.0003C25.7679 19.9192 24.0809 18.2322 21.9998 18.2322C19.9187 18.2322 18.2317 19.9192 18.2317 22.0003C18.2317 24.0814 19.9187 25.7684 21.9998 25.7684ZM27.9196 17.3574C28.6586 17.3574 29.2577 16.7584 29.2577 16.0193C29.2577 15.2803 28.6586 14.6812 27.9196 14.6812C27.1805 14.6812 26.5814 15.2803 26.5814 16.0193C26.5814 16.7584 27.1805 17.3574 27.9196 17.3574Z" fill="white"/>
</svg>
