<svg width="40" height="40" viewBox="0 0 40 40" fill="none" xmlns="http://www.w3.org/2000/svg">
<path d="M19.9992 11.6667V15M28.8868 26.6852L29.6865 14.6897C29.6982 14.5144 29.704 14.4267 29.7078 14.344C29.834 11.6452 28.6438 9.05273 26.515 7.38903C26.4498 7.33805 26.3795 7.28535 26.239 7.17995C26.0105 7.00851 25.8962 6.9228 25.7913 6.84826C22.323 4.38391 17.6752 4.38391 14.2069 6.84826C14.102 6.9228 13.9878 7.00851 13.7592 7.17995C13.6186 7.28535 13.5484 7.33805 13.4831 7.38903C11.3543 9.05273 10.1642 11.6452 10.2904 14.344C10.2942 14.4267 10.3001 14.5144 10.3117 14.6897L11.1114 26.6852C11.4234 31.3642 15.3097 35 19.9992 35C24.6885 35 28.5748 31.3642 28.8868 26.6852Z" stroke="white" stroke-width="2" stroke-linecap="round"/>
</svg>
