<svg width="24" height="27" viewBox="0 0 24 27" fill="none" xmlns="http://www.w3.org/2000/svg">
<path d="M2.6416 14.6441L1.74023 14.5418H1.74023L2.6416 14.6441ZM3.20058 9.71898L4.10195 9.82129L3.20058 9.71898ZM1.55973 17.0902L0.868957 16.5021H0.868957L1.55973 17.0902ZM20.2598 14.5418C20.2033 14.044 19.7539 13.6862 19.2561 13.7427C18.7583 13.7992 18.4005 14.2486 18.457 14.7464L20.2598 14.5418ZM20.4403 17.0902L19.7495 17.6782L20.4403 17.0902ZM8.16257 3.96708L8.45642 4.82532C8.82327 4.69971 9.06972 4.35483 9.06972 3.96708H8.16257ZM12.4654 2.58097C12.7918 2.9611 13.3645 3.00468 13.7446 2.67832C14.1248 2.35195 14.1683 1.77923 13.842 1.39911L12.4654 2.58097ZM15.5995 23.8184C15.7753 23.3492 15.5375 22.8264 15.0684 22.6505C14.5992 22.4747 14.0764 22.7125 13.9005 23.1816L15.5995 23.8184ZM8.09946 23.1816C7.92363 22.7125 7.40079 22.4747 6.93165 22.6505C6.4625 22.8264 6.22472 23.3492 6.40055 23.8184L8.09946 23.1816ZM21.3428 7.25C21.3428 8.82006 20.0701 10.0928 18.5 10.0928V11.9072C21.0721 11.9072 23.1572 9.82207 23.1572 7.25H21.3428ZM18.5 10.0928C16.9299 10.0928 15.6572 8.82006 15.6572 7.25H13.8428C13.8428 9.82207 15.9279 11.9072 18.5 11.9072V10.0928ZM15.6572 7.25C15.6572 5.67994 16.9299 4.40715 18.5 4.40715V2.59285C15.9279 2.59285 13.8428 4.67793 13.8428 7.25H15.6572ZM18.5 4.40715C20.0701 4.40715 21.3428 5.67994 21.3428 7.25H23.1572C23.1572 4.67793 21.0721 2.59285 18.5 2.59285V4.40715ZM18.2215 20.0928H3.77852V21.9072H18.2215V20.0928ZM3.54296 14.7464L4.10195 9.82129L2.29922 9.61668L1.74023 14.5418L3.54296 14.7464ZM2.25051 17.6782C2.96844 16.8348 3.42091 15.8217 3.54296 14.7464L1.74023 14.5418C1.66093 15.2405 1.36516 15.9192 0.868957 16.5021L2.25051 17.6782ZM18.457 14.7464C18.5791 15.8217 19.0316 16.8348 19.7495 17.6782L21.131 16.5021C20.6348 15.9192 20.3391 15.2405 20.2598 14.5418L18.457 14.7464ZM3.77852 20.0928C2.94923 20.0928 2.35974 19.6824 2.0868 19.2015C1.82282 18.7363 1.82704 18.1756 2.25051 17.6782L0.868957 16.5021C-0.0788618 17.6156 -0.107987 19.0099 0.508875 20.0969C1.11678 21.1681 2.32233 21.9072 3.77852 21.9072V20.0928ZM18.2215 21.9072C19.6777 21.9072 20.8832 21.1681 21.4911 20.0969C22.108 19.0099 22.0789 17.6156 21.131 16.5021L19.7495 17.6782C20.173 18.1756 20.1772 18.7363 19.9132 19.2015C19.6403 19.6824 19.0508 20.0928 18.2215 20.0928V21.9072ZM9.06972 3.96708V3.83743H7.25542V3.96708H9.06972ZM4.10195 9.82129C4.35726 7.57175 6.0509 5.64894 8.45642 4.82532L7.86872 3.10884C4.91825 4.11904 2.64673 6.55483 2.29922 9.61668L4.10195 9.82129ZM11 0.0928482C8.93193 0.0928482 7.25542 1.76936 7.25542 3.83743H9.06972C9.06972 2.77137 9.93394 1.90715 11 1.90715V0.0928482ZM11 1.90715C11.5859 1.90715 12.11 2.16704 12.4654 2.58097L13.842 1.39911C13.1566 0.600839 12.1371 0.0928482 11 0.0928482V1.90715ZM13.9005 23.1816C13.4925 24.2703 12.3679 25.0928 11 25.0928V26.9072C13.0947 26.9072 14.9158 25.6427 15.5995 23.8184L13.9005 23.1816ZM11 25.0928C9.63212 25.0928 8.50746 24.2703 8.09946 23.1816L6.40055 23.8184C7.08425 25.6427 8.90531 26.9072 11 26.9072V25.0928Z" fill="white"/>
</svg>
