<svg width="24" height="24" viewBox="0 0 24 24" fill="none" xmlns="http://www.w3.org/2000/svg">
<path d="M1.47217 0.638672C2.14018 0.638672 2.6817 1.1802 2.6817 1.84821V19.659C2.6817 20.327 3.22323 20.8686 3.89124 20.8686H21.8223C22.4903 20.8686 23.0318 21.4101 23.0318 22.0781V22.1878C23.0318 22.8558 22.4903 23.3973 21.8223 23.3973H1.34748C0.679468 23.3973 0.137939 22.8558 0.137939 22.1878V1.84821C0.137939 1.1802 0.679467 0.638672 1.34747 0.638672H1.47217ZM21.2799 5.64973C21.7517 5.18085 22.5135 5.18089 22.9852 5.64983L23.0681 5.73225C23.5439 6.20518 23.5439 6.97493 23.0681 7.44785L17.525 12.9582C17.0533 13.4272 16.2915 13.4272 15.8197 12.9584L13.7094 10.8613C13.2376 10.3925 12.4759 10.3925 12.0042 10.8613L8.2493 14.5931C7.77752 15.062 7.01567 15.062 6.54394 14.593L6.46103 14.5106C5.98529 14.0377 5.98529 13.2679 6.46103 12.795L12.0042 7.28462C12.4759 6.81569 13.2377 6.81563 13.7095 7.28447L15.8198 9.38159C16.2915 9.8504 17.0533 9.85038 17.525 9.38155L21.2799 5.64973Z" fill="white"/>
</svg>
