<svg width="108" height="108" viewBox="0 0 108 108" fill="none" xmlns="http://www.w3.org/2000/svg">
<g filter="url(#filter0_di_30_41506)">
<g filter="url(#filter1_di_30_41506)">
<rect x="4" width="100" height="100" rx="10" fill="url(#paint0_linear_30_41506)"/>
<rect x="7" y="3" width="94" height="94" rx="7" stroke="white" stroke-opacity="0.3" stroke-width="6"/>
</g>
<g clip-path="url(#clip0_30_41506)">
<path d="M70.2109 50C70.2109 52.4231 72.1823 54.3945 74.6055 54.3945C77.0286 54.3945 79 52.4231 79 50C79 47.5769 77.0286 45.6055 74.6055 45.6055C72.1823 45.6055 70.2109 47.5769 70.2109 50Z" fill="white"/>
<path d="M60.0073 31.9854C60.0073 34.4124 61.9748 36.3799 64.4019 36.3799C66.8289 36.3799 68.7964 34.4124 68.7964 31.9854C68.7964 29.5583 66.8289 27.5908 64.4019 27.5908C61.9748 27.5908 60.0073 29.5583 60.0073 31.9854Z" fill="white"/>
<path d="M60.0073 68.0149C60.0073 70.4419 61.9748 72.4094 64.4019 72.4094C66.8289 72.4094 68.7964 70.4419 68.7964 68.0149C68.7964 65.5879 66.8289 63.6204 64.4019 63.6204C61.9748 63.6204 60.0073 65.5879 60.0073 68.0149Z" fill="white"/>
<path d="M37.7891 50C37.7891 47.5769 35.8177 45.6055 33.3945 45.6055C30.9714 45.6055 29 47.5769 29 50C29 52.4231 30.9714 54.3945 33.3945 54.3945C35.8177 54.3945 37.7891 52.4231 37.7891 50Z" fill="white"/>
<path d="M48.1914 31.9854C48.1914 29.5622 46.22 27.5908 43.7969 27.5908C41.3737 27.5908 39.4023 29.5622 39.4023 31.9854C39.4023 34.4085 41.3737 36.3799 43.7969 36.3799C46.22 36.3799 48.1914 34.4085 48.1914 31.9854Z" fill="white"/>
<path d="M69.8884 44.4032C70.6336 43.7741 71.505 43.2904 72.4595 42.9974L69.2678 37.4531C68.539 38.1024 67.6799 38.6077 66.7354 38.9262L69.8884 44.4032Z" fill="white"/>
<path d="M50.9831 33.3984L57.2156 33.3984C57.1258 32.9409 57.0774 32.4687 57.0774 31.9853C57.0774 31.4653 57.1328 30.9583 57.2363 30.4688L50.9624 30.4687C51.0659 30.9583 51.1213 31.4653 51.1213 31.9853C51.1212 32.4687 51.0729 32.9409 50.9831 33.3984Z" fill="white"/>
<path d="M69.2678 62.5473L72.4595 57.003C71.505 56.71 70.6336 56.2262 69.8884 55.5972L66.7354 61.0742C67.6799 61.3927 68.5389 61.8979 69.2678 62.5473Z" fill="white"/>
<path d="M38.8007 37.3337L35.5403 42.9972C36.4948 43.2903 37.3662 43.7741 38.1114 44.4031L41.2969 38.8697C40.3611 38.5289 39.5147 38.0013 38.8007 37.3337Z" fill="white"/>
<path d="M38.1114 55.5972C37.3662 56.2263 36.4948 56.71 35.5403 57.003L38.8007 62.6665C39.5147 61.999 40.361 61.4715 41.2969 61.1306L38.1114 55.5972Z" fill="white"/>
<path d="M57.2156 66.6016L50.9831 66.6016C51.0729 67.0591 51.1213 67.5313 51.1213 68.0147C51.1213 68.5347 51.0659 69.0417 50.9624 69.5312L57.2363 69.5312C57.1328 69.0417 57.0774 68.5347 57.0774 68.0147C57.0775 67.5313 57.1258 67.0591 57.2156 66.6016Z" fill="white"/>
<path d="M48.1914 68.0149C48.1914 65.5917 46.22 63.6204 43.7969 63.6204C41.3737 63.6204 39.4023 65.5917 39.4023 68.0149C39.4023 70.438 41.3737 72.4094 43.7969 72.4094C46.22 72.4094 48.1914 70.438 48.1914 68.0149Z" fill="white"/>
<path d="M55.6357 50C55.6357 49.1923 54.9786 48.5352 54.1709 48.5352C53.3632 48.5352 52.7061 49.1923 52.7061 50C52.7061 50.8077 53.3632 51.4648 54.1709 51.4648C54.9786 51.4648 55.6357 50.8077 55.6357 50Z" fill="white"/>
<path d="M57.5629 61.7267L57.9356 59.787C58.0992 59.7211 58.2611 59.6512 58.4212 59.5771L60.065 60.6903C60.6465 61.0841 61.4257 61.0098 61.9223 60.5133L64.6846 57.751C65.1812 57.2544 65.2556 56.475 64.8615 55.8935L63.6912 54.1661C63.7453 54.0404 63.797 53.9138 63.846 53.7861L65.8979 53.3913C66.5875 53.2587 67.0859 52.6552 67.0859 51.9529L67.0859 48.0465C67.0859 47.3441 66.5874 46.7405 65.8977 46.608L63.8459 46.2136C63.7968 46.086 63.7451 45.9594 63.691 45.8338L64.8612 44.1059C65.255 43.5243 65.1808 42.7452 64.6842 42.2486L61.9219 39.4863C61.4252 38.9896 60.6459 38.9154 60.0645 39.3094L58.4213 40.4227C58.2612 40.3486 58.0993 40.2786 57.9357 40.2128L57.563 38.2732C57.4304 37.5835 56.8269 37.085 56.1245 37.085L52.2181 37.085C51.5158 37.085 50.9123 37.5834 50.7796 38.273L50.4334 40.0722C50.2143 40.151 49.9977 40.237 49.7841 40.3303L48.2773 39.3095C47.6958 38.9154 46.9165 38.9897 46.4198 39.4864L43.6575 42.2487C43.1609 42.7453 43.0866 43.5244 43.4805 44.106L44.4453 45.5307C44.3294 45.7779 44.2232 46.0296 44.127 46.2849C43.5663 46.3927 43.0054 46.5005 42.4445 46.608C41.7545 46.7403 41.2557 47.344 41.2557 48.0466L41.2557 51.953C41.2557 52.6553 41.7541 53.2588 42.4437 53.3915L44.127 53.7153C44.2231 53.9705 44.3293 54.222 44.4452 54.4693L43.4802 55.8936C43.0861 56.4751 43.1604 57.2544 43.6571 57.7511L46.4194 60.5134C46.916 61.01 47.6951 61.0843 48.2767 60.6904L49.7837 59.6698C49.9974 59.7631 50.2141 59.8492 50.4333 59.928L50.7795 61.7272C50.9122 62.4169 51.5156 62.9153 52.2179 62.9153L56.1243 62.9153C56.8268 62.915 57.4303 62.4165 57.5629 61.7267ZM49.7764 50C49.7764 47.5769 51.7478 45.6055 54.1709 45.6055C56.594 45.6055 58.5654 47.5769 58.5654 50C58.5654 52.4231 56.594 54.3945 54.1709 54.3945C51.7478 54.3945 49.7764 52.4231 49.7764 50Z" fill="white"/>
</g>
</g>
<defs>
<filter id="filter0_di_30_41506" x="0" y="0" width="108" height="122" filterUnits="userSpaceOnUse" color-interpolation-filters="sRGB">
<feFlood flood-opacity="0" result="BackgroundImageFix"/>
<feColorMatrix in="SourceAlpha" type="matrix" values="0 0 0 0 0 0 0 0 0 0 0 0 0 0 0 0 0 0 127 0" result="hardAlpha"/>
<feOffset dy="4"/>
<feGaussianBlur stdDeviation="2"/>
<feComposite in2="hardAlpha" operator="out"/>
<feColorMatrix type="matrix" values="0 0 0 0 0 0 0 0 0 0 0 0 0 0 0 0 0 0 0.25 0"/>
<feBlend mode="normal" in2="BackgroundImageFix" result="effect1_dropShadow_30_41506"/>
<feBlend mode="normal" in="SourceGraphic" in2="effect1_dropShadow_30_41506" result="shape"/>
<feColorMatrix in="SourceAlpha" type="matrix" values="0 0 0 0 0 0 0 0 0 0 0 0 0 0 0 0 0 0 127 0" result="hardAlpha"/>
<feOffset dy="22"/>
<feGaussianBlur stdDeviation="22"/>
<feComposite in2="hardAlpha" operator="arithmetic" k2="-1" k3="1"/>
<feColorMatrix type="matrix" values="0 0 0 0 1 0 0 0 0 1 0 0 0 0 1 0 0 0 0.2 0"/>
<feBlend mode="normal" in2="shape" result="effect2_innerShadow_30_41506"/>
</filter>
<filter id="filter1_di_30_41506" x="0" y="0" width="108" height="122" filterUnits="userSpaceOnUse" color-interpolation-filters="sRGB">
<feFlood flood-opacity="0" result="BackgroundImageFix"/>
<feColorMatrix in="SourceAlpha" type="matrix" values="0 0 0 0 0 0 0 0 0 0 0 0 0 0 0 0 0 0 127 0" result="hardAlpha"/>
<feOffset dy="4"/>
<feGaussianBlur stdDeviation="2"/>
<feComposite in2="hardAlpha" operator="out"/>
<feColorMatrix type="matrix" values="0 0 0 0 0 0 0 0 0 0 0 0 0 0 0 0 0 0 0.25 0"/>
<feBlend mode="normal" in2="BackgroundImageFix" result="effect1_dropShadow_30_41506"/>
<feBlend mode="normal" in="SourceGraphic" in2="effect1_dropShadow_30_41506" result="shape"/>
<feColorMatrix in="SourceAlpha" type="matrix" values="0 0 0 0 0 0 0 0 0 0 0 0 0 0 0 0 0 0 127 0" result="hardAlpha"/>
<feOffset dy="22"/>
<feGaussianBlur stdDeviation="22"/>
<feComposite in2="hardAlpha" operator="arithmetic" k2="-1" k3="1"/>
<feColorMatrix type="matrix" values="0 0 0 0 1 0 0 0 0 1 0 0 0 0 1 0 0 0 0.2 0"/>
<feBlend mode="normal" in2="shape" result="effect2_innerShadow_30_41506"/>
</filter>
<linearGradient id="paint0_linear_30_41506" x1="54" y1="0" x2="54" y2="100" gradientUnits="userSpaceOnUse">
<stop stop-color="#FF9029"/>
<stop offset="1" stop-color="#FF7B00"/>
</linearGradient>
<clipPath id="clip0_30_41506">
<rect x="79" y="25" width="50" height="50" transform="rotate(90 79 25)" fill="white"/>
</clipPath>
</defs>
</svg>
