<svg width="30" height="31" viewBox="0 0 30 31" fill="none" xmlns="http://www.w3.org/2000/svg">
<ellipse cx="12.5002" cy="22.375" rx="8.75" ry="4.375" stroke="white" stroke-width="1.8143" stroke-linejoin="round"/>
<circle cx="12.5" cy="9.25" r="5" stroke="white" stroke-width="1.8143" stroke-linejoin="round"/>
<path fill-rule="evenodd" clip-rule="evenodd" d="M18.7857 13.3422C18.3935 13.9434 17.9173 14.485 17.3738 14.9501C17.8086 15.0844 18.2707 15.1567 18.7497 15.1567C21.3218 15.1567 23.4068 13.0716 23.4068 10.4996C23.4068 8.0772 21.5574 6.08679 19.1936 5.86328C19.5126 6.49258 19.7454 7.17293 19.8766 7.88882C20.8861 8.32516 21.5925 9.32986 21.5925 10.4996C21.5925 12.0576 20.3392 13.3229 18.7857 13.3422Z" fill="white"/>
<path fill-rule="evenodd" clip-rule="evenodd" d="M23.7489 22.4786C23.731 23.2205 23.5209 23.934 23.1476 24.6011C23.5957 24.4767 24.0159 24.333 24.4022 24.1721C25.1465 23.862 25.808 23.4697 26.2973 22.9876C26.7898 22.5025 27.1572 21.8725 27.1572 21.125C27.1572 20.3775 26.7898 19.7475 26.2973 19.2624C25.808 18.7803 25.1465 18.388 24.4022 18.0779C23.1434 17.5534 21.5242 17.2129 19.7515 17.1191C20.9561 17.7404 21.9442 18.5134 22.6368 19.39C23.0256 19.497 23.3833 19.6188 23.7044 19.7527C24.3174 20.0081 24.7543 20.2891 25.024 20.5549C25.2905 20.8174 25.3429 21.0095 25.3429 21.125C25.3429 21.2405 25.2905 21.4326 25.024 21.6951C24.7608 21.9544 24.3386 22.2282 23.7489 22.4786Z" fill="white"/>
</svg>
