<svg width="40" height="40" viewBox="0 0 40 40" fill="none" xmlns="http://www.w3.org/2000/svg">
<path d="M24.9998 25.4245C23.1102 24.1063 20.812 23.3333 18.3332 23.3333C12.34 23.3333 7.40227 27.8523 6.74164 33.6688C6.69489 34.0805 6.6715 34.2863 6.75369 34.4852C6.82094 34.6477 6.9665 34.8107 7.1205 34.8958C7.3087 35 7.5391 35 7.99987 35H16.5744M23.3332 32.1428L26.3332 35L33.3332 28.3333M24.9998 11.6667C24.9998 15.3486 22.0152 18.3333 18.3332 18.3333C14.6513 18.3333 11.6665 15.3486 11.6665 11.6667C11.6665 7.98477 14.6513 5 18.3332 5C22.0152 5 24.9998 7.98477 24.9998 11.6667Z" stroke="white" stroke-width="2" stroke-linecap="round" stroke-linejoin="round"/>
</svg>
