<svg width="30" height="31" viewBox="0 0 30 31" fill="none" xmlns="http://www.w3.org/2000/svg">
<g clip-path="url(#clip0_73_1482)">
<path d="M9.62205 23.9692C8.89029 23.4029 8.24436 22.7386 7.70341 21.996H6.60595C5.67736 21.995 4.78709 21.635 4.13047 20.9949C3.47386 20.3549 3.10453 19.4871 3.10352 18.5819V12.4227C3.10486 11.5178 3.47434 10.6503 4.13092 10.0105C4.7875 9.37073 5.67758 9.01089 6.60595 9.0099H7.68686C8.20002 8.26736 8.82345 7.6032 9.53675 7.03915C11.5836 5.42219 14.1563 4.57219 16.7899 4.64274C17.043 4.64306 17.2857 4.74123 17.4647 4.91571C17.6437 5.0902 17.7444 5.32675 17.7447 5.5735V25.4299C17.7444 25.6769 17.6435 25.9136 17.4643 26.0881C17.285 26.2626 17.042 26.3607 16.7886 26.3607C14.1853 26.4113 11.6473 25.5644 9.62205 23.9692ZM5.01324 12.4227V18.5832C5.01392 18.9946 5.18198 19.389 5.48056 19.6798C5.77914 19.9706 6.18386 20.1341 6.60595 20.1344H8.23177C8.40292 20.1346 8.57092 20.1794 8.71825 20.2643C8.86559 20.3492 8.98688 20.4711 9.0695 20.6172C9.18948 20.8121 9.32305 20.9986 9.46927 21.1757C9.86913 21.6741 10.3257 22.1266 10.8303 22.5247C12.2576 23.6513 14.0036 24.3266 15.835 24.4607V6.54026C13.9758 6.65092 12.1988 7.32666 10.7539 8.47254C10.2656 8.8652 9.82787 9.31399 9.45017 9.80912C9.31593 9.9811 9.19466 10.1624 9.08732 10.3514C9.00805 10.5057 8.88624 10.6354 8.73557 10.7259C8.58489 10.8165 8.41131 10.8643 8.23431 10.864H6.60595C6.39635 10.8643 6.18887 10.9049 5.99537 10.9834C5.80187 11.062 5.62614 11.1769 5.47823 11.3216C5.33032 11.4664 5.21312 11.6381 5.13333 11.8271C5.05355 12.016 5.01274 12.2184 5.01324 12.4227ZM22.2008 25.8134C22.0227 25.6387 21.9227 25.4025 21.9227 25.1562C21.9227 24.91 22.0227 24.6738 22.2008 24.4991C23.4135 23.3179 24.3756 21.9153 25.032 20.3715C25.6884 18.8276 26.0262 17.1729 26.0262 15.5017C26.0262 13.8305 25.6884 12.1758 25.032 10.6319C24.3756 9.0881 23.4135 7.6855 22.2008 6.50427C22.1028 6.42018 22.0236 6.31741 21.968 6.2023C21.9124 6.0872 21.8816 5.9622 21.8775 5.83503C21.8734 5.70786 21.8961 5.58122 21.9441 5.46294C21.9922 5.34465 22.0646 5.23723 22.157 5.1473C22.2493 5.05738 22.3596 4.98687 22.481 4.94011C22.6024 4.89336 22.7323 4.87137 22.8628 4.87549C22.9932 4.87961 23.1214 4.90976 23.2395 4.96407C23.3575 5.01838 23.4629 5.09571 23.549 5.19127C24.9383 6.54525 26.0404 8.15274 26.7922 9.92192C27.5441 11.6911 27.9311 13.5873 27.9311 15.5023C27.9311 17.4173 27.5441 19.3135 26.7922 21.0827C26.0404 22.8519 24.9383 24.4594 23.549 25.8134C23.3698 25.9878 23.1269 26.0857 22.8736 26.0857C22.6204 26.0857 22.3775 25.9878 22.1982 25.8134H22.2008ZM19.8709 22.3025C19.7822 22.2162 19.7119 22.1137 19.6638 22.0008C19.6158 21.8879 19.5911 21.7669 19.5911 21.6448C19.5911 21.5226 19.6158 21.4016 19.6638 21.2887C19.7119 21.1759 19.7822 21.0734 19.8709 20.987C20.6098 20.2668 21.196 19.4117 21.5959 18.4706C21.9958 17.5296 22.2016 16.5209 22.2016 15.5023C22.2016 14.4837 21.9958 13.4751 21.5959 12.534C21.196 11.5929 20.6098 10.7379 19.8709 10.0176C19.7797 9.93179 19.7069 9.82912 19.6568 9.71559C19.6067 9.60205 19.5803 9.47993 19.5791 9.35634C19.578 9.23276 19.6021 9.11019 19.65 8.99578C19.698 8.88137 19.7688 8.77741 19.8584 8.68998C19.948 8.60255 20.0546 8.53338 20.172 8.48653C20.2893 8.43968 20.415 8.41607 20.5418 8.41708C20.6686 8.4181 20.7939 8.44372 20.9104 8.49244C21.0269 8.54117 21.1323 8.61203 21.2204 8.70089C23.0708 10.5046 24.1103 12.9509 24.1103 15.5017C24.1103 18.0525 23.0708 20.4988 21.2204 22.3025C21.1319 22.389 21.0267 22.4576 20.9109 22.5044C20.7951 22.5511 20.671 22.5752 20.5457 22.5752C20.4203 22.5752 20.2962 22.5511 20.1804 22.5044C20.0647 22.4576 19.9595 22.389 19.8709 22.3025Z" fill="white"/>
</g>
<defs>
<clipPath id="clip0_73_1482">
<rect width="30" height="30" fill="white" transform="translate(0 0.5)"/>
</clipPath>
</defs>
</svg>
