<svg width="18" height="18" viewBox="0 0 18 18" fill="none" xmlns="http://www.w3.org/2000/svg">
<path fill-rule="evenodd" clip-rule="evenodd" d="M15.9691 7.75635C15.7007 5.00271 14.0728 0.673096 9.04175 0.673096C4.01074 0.673096 2.3828 5.00271 2.11437 7.75635C1.17269 8.11374 0.551538 9.01785 0.555685 10.0251V11.2374C0.555685 12.5764 1.64123 13.6619 2.98029 13.6619C4.31935 13.6619 5.40487 12.5764 5.40487 11.2374V10.0251C5.40052 9.0396 4.80219 8.15406 3.88951 7.78233C4.06269 6.18903 4.9113 2.40494 9.04175 2.40494C13.1722 2.40494 14.0122 6.18903 14.1853 7.78233C13.2745 8.15487 12.6792 9.04099 12.6786 10.0251V11.2374C12.6824 12.1682 13.2169 13.0153 14.0554 13.4195C13.6918 14.1036 12.7652 15.0301 10.4878 15.3072C10.0326 14.6159 9.15185 14.3434 8.38577 14.6568C7.61968 14.9702 7.18243 15.7818 7.34219 16.594C7.50194 17.4061 8.21405 17.9916 9.04175 17.9916C9.69582 17.9879 10.292 17.6161 10.5831 17.0304C14.2979 16.6061 15.4842 14.6924 15.8566 13.5667C16.8639 13.2404 17.5414 12.2961 17.5278 11.2374V10.0251C17.532 9.01785 16.9108 8.11374 15.9691 7.75635ZM3.67303 11.2374C3.67303 11.6199 3.36288 11.9301 2.98029 11.9301C2.5977 11.9301 2.28755 11.6199 2.28755 11.2374V10.0251C2.28755 9.77757 2.41959 9.54888 2.63392 9.42514C2.84825 9.30139 3.11233 9.30139 3.32666 9.42514C3.54099 9.54888 3.67303 9.77757 3.67303 10.0251V11.2374ZM14.4105 10.0251C14.4105 9.64248 14.7206 9.33233 15.1032 9.33233C15.4858 9.33233 15.796 9.64248 15.796 10.0251V11.2374C15.796 11.6199 15.4858 11.9301 15.1032 11.9301C14.7206 11.9301 14.4105 11.6199 14.4105 11.2374V10.0251Z" fill="#FFB300"/>
</svg>
