<svg width="44" height="44" viewBox="0 0 44 44" fill="none" xmlns="http://www.w3.org/2000/svg">
<rect x="1" y="1" width="42" height="42" rx="9" stroke="white" stroke-width="2"/>
<path d="M25.6997 13.0792V13.0752H26.7313L27.1082 13.1505C27.3595 13.1993 27.5876 13.2634 27.7926 13.3426C27.9976 13.4219 28.196 13.5143 28.3877 13.62C28.5795 13.7256 28.7534 13.8333 28.9095 13.9429C29.0642 14.0512 29.2031 14.1661 29.3261 14.2876C29.4477 14.4104 29.6375 14.4421 29.8954 14.3827C30.1533 14.3232 30.431 14.2407 30.7286 14.135C31.0261 14.0294 31.3204 13.9105 31.6114 13.7785C31.9023 13.6464 32.0795 13.5625 32.143 13.5269C32.2052 13.4899 32.2383 13.4701 32.2422 13.4674L32.2462 13.4615L32.266 13.4516L32.2858 13.4417L32.3057 13.4318L32.3255 13.4219L32.3295 13.4159L32.3354 13.412L32.3414 13.408L32.3454 13.4021L32.3652 13.3961L32.385 13.3922L32.3811 13.4219L32.3751 13.4516L32.3652 13.4813L32.3553 13.511L32.3454 13.5308L32.3354 13.5506L32.3255 13.5804C32.3189 13.6002 32.3123 13.6266 32.3057 13.6596C32.2991 13.6926 32.2362 13.8247 32.1172 14.0558C31.9982 14.2869 31.8494 14.5213 31.6709 14.7591C31.4923 14.9968 31.3323 15.1764 31.1908 15.2979C31.048 15.4207 30.9534 15.5066 30.9071 15.5554C30.8608 15.6056 30.8046 15.6518 30.7385 15.6941L30.6393 15.7595L30.6195 15.7694L30.5996 15.7793L30.5957 15.7852L30.5897 15.7892L30.5838 15.7932L30.5798 15.7991L30.56 15.809L30.5401 15.8189L30.5362 15.8249L30.5302 15.8288L30.5243 15.8328L30.5203 15.8387L30.5163 15.8447L30.5104 15.8486L30.5044 15.8526L30.5005 15.8585H30.5996L31.1551 15.7397C31.5254 15.6604 31.8792 15.5647 32.2164 15.4524L32.752 15.2741L32.8115 15.2543L32.8413 15.2444L32.8611 15.2345L32.881 15.2246L32.9008 15.2147L32.9206 15.2048L32.9603 15.1989L33 15.1949V15.2345L32.9901 15.2385L32.9802 15.2444L32.9762 15.2504L32.9702 15.2543L32.9643 15.2583L32.9603 15.2642L32.9564 15.2702L32.9504 15.2741L32.9445 15.2781L32.9405 15.284L32.9365 15.29L32.9306 15.2939L32.9206 15.3138L32.9107 15.3336L32.9048 15.3375C32.9021 15.3415 32.8182 15.4537 32.6528 15.6743C32.4875 15.8962 32.3983 16.0084 32.385 16.0111C32.3718 16.015 32.3533 16.0349 32.3295 16.0705C32.307 16.1075 32.1668 16.2547 31.9089 16.5123C31.651 16.7698 31.3985 16.9989 31.1511 17.1997C30.9025 17.4018 30.7769 17.65 30.7742 17.9446C30.7703 18.2378 30.755 18.5693 30.7286 18.939C30.7021 19.3088 30.6525 19.7083 30.5798 20.1376C30.5071 20.5668 30.3947 21.0521 30.2426 21.5936C30.0905 22.1351 29.9053 22.6634 29.6871 23.1784C29.4689 23.6935 29.2408 24.1557 29.0027 24.5652C28.7647 24.9746 28.5464 25.3213 28.3481 25.6052C28.1497 25.8891 27.948 26.1566 27.743 26.4075C27.538 26.6584 27.2788 26.9411 26.9654 27.2554C26.6506 27.5684 26.4787 27.7401 26.4496 27.7705C26.4192 27.7995 26.2896 27.9078 26.0608 28.0953C25.8333 28.2842 25.5886 28.4731 25.3268 28.6619C25.0663 28.8495 24.8269 29.006 24.6087 29.1314C24.3904 29.2569 24.1273 29.4002 23.8191 29.5613C23.5123 29.7238 23.1803 29.8743 22.8233 30.013C22.4662 30.1517 22.0893 30.2804 21.6925 30.3993C21.2958 30.5181 20.9122 30.6106 20.5419 30.6766C20.1716 30.7427 19.7517 30.7988 19.2822 30.845L18.578 30.9144V30.9243H17.2885V30.9144L17.1199 30.9044C17.0075 30.8978 16.9149 30.8912 16.8422 30.8846C16.7695 30.878 16.495 30.8417 16.0189 30.7757C15.5428 30.7097 15.1692 30.6436 14.8981 30.5776C14.627 30.5115 14.2236 30.3861 13.688 30.2012C13.1524 30.0163 12.6941 29.8294 12.3133 29.6406C11.9337 29.453 11.6956 29.3341 11.5991 29.284C11.5039 29.2351 11.3968 29.1744 11.2777 29.1017L11.0992 28.9928L11.0952 28.9868L11.0893 28.9828L11.0833 28.9789L11.0794 28.9729L11.0595 28.963L11.0397 28.9531L11.0357 28.9472L11.0298 28.9432L11.0238 28.9393L11.0198 28.9333L11.0159 28.9274L11.0099 28.9234H11V28.8838L11.0198 28.8878L11.0397 28.8937L11.1289 28.9036C11.1885 28.9102 11.3505 28.9201 11.615 28.9333C11.8795 28.9465 12.1605 28.9465 12.4581 28.9333C12.7556 28.9201 13.0598 28.8904 13.3706 28.8442C13.6814 28.798 14.0484 28.7187 14.4716 28.6065C14.8948 28.4942 15.2836 28.3608 15.6381 28.2063C15.9912 28.0505 16.2424 27.9342 16.3919 27.8576C16.54 27.7823 16.7662 27.6423 17.0703 27.4376L17.5266 27.1306L17.5306 27.1246L17.5365 27.1207L17.5425 27.1167L17.5464 27.1108L17.5504 27.1048L17.5564 27.1009L17.5623 27.0969L17.5663 27.091L17.5861 27.085L17.606 27.0811L17.6099 27.0613L17.6159 27.0414L17.6218 27.0375L17.6258 27.0315L17.4671 27.0216C17.3613 27.015 17.2588 27.0084 17.1596 27.0018C17.0604 26.9952 16.905 26.9655 16.6934 26.9127C16.4818 26.8598 16.2537 26.7806 16.009 26.675C15.7644 26.5693 15.5263 26.4438 15.2949 26.2986C15.0634 26.1533 14.8961 26.0324 14.793 25.936C14.6911 25.8409 14.5589 25.7062 14.3962 25.5319C14.2349 25.3563 14.0947 25.176 13.9757 24.9911C13.8566 24.8062 13.7429 24.5929 13.6345 24.3512L13.4698 23.9907L13.4599 23.9609L13.45 23.9312L13.444 23.9114L13.44 23.8916L13.4698 23.8956L13.4995 23.9015L13.7178 23.9312C13.8633 23.951 14.0914 23.9576 14.4022 23.951C14.713 23.9444 14.9279 23.9312 15.0469 23.9114C15.1659 23.8916 15.2387 23.8784 15.2651 23.8718L15.3048 23.8619L15.3544 23.852L15.404 23.8421L15.4079 23.8361L15.4139 23.8322L15.4199 23.8282L15.4238 23.8223L15.3841 23.8124L15.3445 23.8025L15.3048 23.7926L15.2651 23.7827L15.2254 23.7727C15.199 23.7661 15.1527 23.7529 15.0866 23.7331C15.0204 23.7133 14.8419 23.6407 14.5509 23.5152C14.26 23.3898 14.0286 23.2676 13.8566 23.1487C13.6843 23.0295 13.5199 22.8991 13.3647 22.7585C13.2099 22.6158 13.04 22.4322 12.8548 22.2077C12.6697 21.9832 12.5044 21.7224 12.3589 21.4252C12.2134 21.1281 12.1043 20.8441 12.0316 20.5734C11.9591 20.3042 11.9113 20.0291 11.8887 19.7513L11.853 19.3352L11.8729 19.3392L11.8927 19.3451L11.9125 19.3551L11.9324 19.365L11.9522 19.3749L11.972 19.3848L12.2795 19.5234C12.4845 19.6159 12.7391 19.6951 13.0433 19.7612C13.3475 19.8272 13.5293 19.8635 13.5888 19.8701L13.6781 19.88H13.8566L13.8527 19.8741L13.8467 19.8701L13.8408 19.8662L13.8368 19.8602L13.8328 19.8543L13.8269 19.8503L13.8209 19.8463L13.817 19.8404L13.7971 19.8305L13.7773 19.8206L13.7733 19.8147L13.7674 19.8107L13.7614 19.8067L13.7574 19.8008L13.7376 19.7909L13.7178 19.781L13.7138 19.775C13.7098 19.7724 13.653 19.7301 13.5432 19.6482C13.4347 19.565 13.321 19.4574 13.202 19.3253C13.083 19.1933 12.9639 19.0546 12.8449 18.9093C12.7257 18.7637 12.6195 18.6079 12.5275 18.4438C12.4349 18.2787 12.3371 18.0687 12.2339 17.8138C12.1321 17.5602 12.0547 17.3047 12.0018 17.0472C11.9489 16.7896 11.9192 16.5354 11.9125 16.2845C11.9059 16.0335 11.9125 15.8189 11.9324 15.6406C11.9522 15.4623 11.9919 15.2609 12.0514 15.0364C12.1109 14.8119 12.1969 14.5742 12.3093 14.3232L12.4779 13.9468L12.4878 13.9171L12.4977 13.8874L12.5037 13.8835L12.5077 13.8775L12.5116 13.8716L12.5176 13.8676L12.5236 13.8716L12.5275 13.8775L12.5315 13.8835L12.5374 13.8874L12.5434 13.8914L12.5473 13.8973L12.5513 13.9033L12.5573 13.9072L12.5672 13.927L12.5771 13.9468L12.5831 13.9508L12.587 13.9568L12.8548 14.2539C13.0334 14.452 13.245 14.6732 13.4896 14.9176C13.7343 15.1619 13.8699 15.2887 13.8963 15.2979C13.9228 15.3085 13.9558 15.3388 13.9955 15.389C14.0352 15.4379 14.1674 15.5548 14.3922 15.7397C14.6171 15.9246 14.9113 16.1392 15.275 16.3835C15.6387 16.6278 16.0421 16.8689 16.4851 17.1066C16.9282 17.3443 17.4043 17.5589 17.9134 17.7504C18.4226 17.9419 18.7797 18.0674 18.9847 18.1268C19.1897 18.1862 19.5401 18.2622 20.0361 18.3546C20.532 18.4471 20.9056 18.5065 21.1569 18.5329C21.4082 18.5593 21.5801 18.5745 21.6727 18.5785L21.8115 18.5825L21.8076 18.5527L21.8016 18.523L21.7619 18.2754C21.7355 18.1103 21.7223 17.8792 21.7223 17.582C21.7223 17.2849 21.7454 17.0108 21.7917 16.7599C21.838 16.509 21.9074 16.2547 22 15.9972C22.0926 15.7397 22.1832 15.533 22.2718 15.3771C22.3617 15.2226 22.4794 15.0463 22.6249 14.8482C22.7704 14.6501 22.9588 14.4454 23.1903 14.2341C23.4217 14.0228 23.6862 13.8346 23.9838 13.6695C24.2813 13.5044 24.5558 13.3789 24.807 13.2931C25.0583 13.2073 25.2699 13.1511 25.4418 13.1247C25.6138 13.0983 25.6997 13.0831 25.6997 13.0792Z" fill="white"/>
</svg>
