<svg width="68" height="96" viewBox="0 0 68 96" fill="none" xmlns="http://www.w3.org/2000/svg">
<path d="M66.4687 66.6541C65.4473 64.9555 63.8143 63.5314 61.5721 62.3842C59.3287 61.2371 55.6148 60.1031 50.4291 58.9811C48.3338 58.5435 47.0067 58.07 46.4488 57.5618C45.873 57.0715 45.5851 56.5201 45.5851 55.9063C45.5851 55.066 45.9339 54.3516 46.6328 53.7642C47.3304 53.1768 48.3697 52.8843 49.7494 52.8843C51.4254 52.8843 52.7394 53.2787 53.6903 54.0663C54.6412 54.855 55.2659 56.1161 55.5622 57.8507L66.7446 57.1938C66.256 53.1996 64.7234 50.2867 62.1491 48.4562C59.5736 46.6258 55.8334 45.71 50.9273 45.71C48.0591 45.71 45.6305 45.9713 43.6391 46.4891L37.2541 63.7436C37.4775 63.9762 37.7129 64.2015 37.9649 64.4197C40.182 66.364 43.8924 67.9236 49.0948 69.0971C52.2723 69.7984 54.2971 70.5428 55.1704 71.3303C56.0436 72.1191 56.4796 73.0121 56.4796 74.0107C56.4796 75.062 56.0209 75.9862 55.1047 76.7833C54.1884 77.5805 52.8828 77.9785 51.1901 77.9785C48.9204 77.9785 47.1739 77.1993 45.953 75.6398C45.2017 74.676 44.7047 73.2747 44.4598 71.4346L34.1686 72.0819L33.4363 74.0622C34.0192 77.0998 35.3536 79.6675 37.4417 81.7629C39.9551 84.2862 44.4765 85.5472 51.0073 85.5472C54.726 85.5472 57.8068 85.009 60.2509 83.9313C62.695 82.8537 64.598 81.2726 65.9598 79.188C67.3216 77.1034 68.0025 74.8258 68.0025 72.3552C68.0001 70.2551 67.4888 68.3539 66.4687 66.6541Z" fill="#FF010A"/>
<path d="M0 18.3887H12.4009L21.0412 46.1128L29.5717 18.3887H41.6118L27.357 56.9121H14.4986L0 18.3887Z" fill="#01FF3B"/>
<path d="M21.2898 95.9473L16.5222 96L52.3583 0.183405L57.0936 0L21.2898 95.9473Z" fill="white"/>
</svg>
