<svg width="40" height="40" viewBox="0 0 40 40" fill="none" xmlns="http://www.w3.org/2000/svg">
<path d="M30 13.3337V12.0003C30 10.1335 30 9.20006 29.6367 8.48703C29.3172 7.85981 28.8072 7.34988 28.18 7.03031C27.467 6.66699 26.5335 6.66699 24.6667 6.66699H10.3333C8.46648 6.66699 7.53307 6.66699 6.82003 7.03031C6.19282 7.34988 5.68288 7.85981 5.36332 8.48703C5 9.20006 5 10.1335 5 12.0003V13.3337M5 13.3337V28.0003C5 29.8672 5 30.8007 5.36332 31.5137C5.68288 32.1408 6.19282 32.6508 6.82003 32.9703C7.53307 33.3337 8.46648 33.3337 10.3333 33.3337H29.6667C31.5335 33.3337 32.467 33.3337 33.18 32.9703C33.8072 32.6508 34.3172 32.1408 34.6367 31.5137C35 30.8007 35 29.8672 35 28.0003V18.667C35 16.8002 35 15.8667 34.6367 15.1537C34.3172 14.5265 33.8072 14.0165 33.18 13.697C32.467 13.3337 31.5335 13.3337 29.6667 13.3337H5ZM35 20.0003H31.6667C29.8257 20.0003 28.3333 21.4927 28.3333 23.3337C28.3333 25.1747 29.8257 26.667 31.6667 26.667H35" stroke="white" stroke-width="3" stroke-linecap="round" stroke-linejoin="round"/>
</svg>
