<svg width="108" height="108" viewBox="0 0 108 108" fill="none" xmlns="http://www.w3.org/2000/svg">
<g filter="url(#filter0_di_30_41434)">
<g filter="url(#filter1_di_30_41434)">
<rect x="4" width="100" height="100" rx="10" fill="url(#paint0_linear_30_41434)"/>
<rect x="7" y="3" width="94" height="94" rx="7" stroke="white" stroke-opacity="0.3" stroke-width="6"/>
</g>
<g clip-path="url(#clip0_30_41434)">
<path d="M29.0012 50.0527C29.0012 47.4569 28.9979 44.8611 29.0023 42.2652C29.0066 39.3407 31.0982 37.1022 33.8567 37.093C34.2124 37.0919 34.4011 36.9728 34.5843 36.6556C37.3168 31.9277 41.1433 28.5761 46.0455 26.6215C53.0556 23.8275 59.7329 24.7046 66.0696 28.7948C69.0818 30.7391 71.4684 33.3716 73.2998 36.5571C73.5015 36.9086 73.7173 37.0438 74.112 37.0449C76.9247 37.0506 78.9968 39.2572 78.9979 42.2263C79.0001 47.3412 78.9947 52.4574 79.0012 57.5723C79.0033 59.0426 78.4612 60.3846 77.5948 61.3876C76.7501 62.3655 75.5042 62.9587 74.1554 62.9781C73.7411 62.9839 73.5189 63.1201 73.2998 63.4888C69.6001 69.7351 64.2848 73.4611 57.4265 74.715C54.8957 75.1776 52.3584 75.0413 49.8233 74.5901C43.0832 73.3901 38.1441 69.458 34.5214 63.4774C34.4054 63.285 34.104 63.1178 33.8838 63.1121C31.0288 63.0308 29.0023 60.8598 29.0012 57.8414C29.0001 55.2444 29.0012 52.6486 29.0012 50.0527ZM54.0001 60.7796C60.6155 60.7796 67.2309 60.7796 73.8463 60.7796C75.8404 60.7796 76.8911 59.6827 76.8933 57.5723C76.8987 52.5696 76.8987 47.568 76.8943 42.5652C76.8922 40.4972 75.8263 39.3808 73.8734 39.3808C60.6242 39.3808 47.3749 39.3808 34.1257 39.3808C32.176 39.3808 31.108 40.4984 31.1058 42.5664C31.1004 47.5874 31.1004 52.6085 31.1058 57.6307C31.108 59.6598 32.1804 60.7808 34.0985 60.7808C40.7324 60.7808 47.3662 60.7808 54.0001 60.7796ZM38.0118 36.2995C39.9029 36.2995 41.7256 36.3075 43.5484 36.2846C43.7012 36.2823 43.8964 36.1094 43.9973 35.9594C45.7387 33.3922 47.6926 31.0219 49.8515 28.8394C50.0152 28.6734 50.2451 28.5795 50.4446 28.4524C50.3882 28.394 50.3329 28.3356 50.2765 28.2772C46.6766 28.4032 39.9289 32.7842 38.0118 36.2995ZM69.8875 36.3006C67.8349 32.7166 60.7142 28.1146 57.6423 28.3265C57.6466 28.3448 57.6445 28.3688 57.6553 28.3803C59.9638 30.7482 62.1216 33.2548 63.9671 36.0487C64.0463 36.1689 64.2219 36.288 64.3531 36.2892C66.1726 36.3063 67.9932 36.3006 69.8875 36.3006ZM50.0402 71.9096C50.0944 71.8443 50.1486 71.779 50.2017 71.7138C50.102 71.6645 49.9816 71.6382 49.9046 71.5626C47.5831 69.3149 45.4459 66.8931 43.6416 64.1541C43.5353 63.9938 43.2654 63.8759 43.0702 63.8724C41.5359 63.8495 40.0016 63.8575 38.4673 63.861C38.3393 63.861 38.2103 63.8965 38.0064 63.9262C41.1715 68.1469 45.1586 70.7863 50.0402 71.9096ZM69.9254 63.8667C68.0832 63.8667 66.3862 63.8564 64.6904 63.8839C64.5277 63.8862 64.3217 64.0923 64.2133 64.2606C62.4805 66.916 60.4106 69.2519 58.1725 71.4321C58.0457 71.5557 57.8711 71.6244 57.7182 71.7195C57.7735 71.7836 57.8277 71.8489 57.883 71.913C62.7538 70.776 66.7571 68.1767 69.9254 63.8667ZM46.6875 63.893C48.5026 66.2942 50.3926 68.44 52.6046 70.3935C52.6046 68.1629 52.6046 66.0412 52.6046 63.893C50.6593 63.893 48.7477 63.893 46.6875 63.893ZM61.1804 63.9113C59.1387 63.9113 57.2075 63.9113 55.2861 63.9113C55.2861 66.0709 55.2861 68.1847 55.2861 70.3981C57.4439 68.3851 59.4054 66.3228 61.1804 63.9113ZM55.427 29.8666C55.3761 29.9055 55.324 29.9433 55.2731 29.9822C55.2731 32.0708 55.2731 34.1582 55.2731 36.2525C57.1316 36.2525 58.9543 36.2525 60.7781 36.2525C60.8172 36.1976 60.8551 36.1426 60.8942 36.0876C59.0714 34.0139 57.2498 31.9402 55.427 29.8666ZM52.6035 36.272C52.6035 34.133 52.6035 32.0696 52.6035 29.8723C50.5758 31.9082 48.7086 33.9281 47.0366 36.272C48.9721 36.272 50.771 36.272 52.6035 36.272Z" fill="white"/>
<path d="M47.505 44.2965C47.2481 45.6442 47.0138 46.8946 46.772 48.1427C46.3123 50.5153 45.8374 52.8844 45.396 55.2604C45.3234 55.652 45.1738 55.7516 44.8257 55.7401C44.122 55.7161 43.4161 55.7115 42.7124 55.7413C42.3513 55.7562 42.2136 55.6119 42.129 55.2546C41.6194 53.1111 41.0891 50.9733 40.4526 48.808C40.3973 49.0072 40.3355 49.2053 40.2867 49.4068C39.814 51.3454 39.3358 53.2829 38.8782 55.226C38.7915 55.5959 38.6603 55.7665 38.2645 55.7447C37.5434 55.7058 36.8191 55.7218 36.0969 55.739C35.8118 55.7459 35.6773 55.6497 35.6188 55.3462C34.9346 51.7954 34.2395 48.248 33.5499 44.6984C33.5293 44.5907 33.5271 44.4774 33.5098 44.2988C34.4206 44.2988 35.3011 44.2839 36.1804 44.3182C36.2889 44.3228 36.4526 44.5781 36.4808 44.7396C36.7844 46.4652 37.0652 48.1942 37.3548 49.9221C37.3797 50.0698 37.4166 50.2141 37.5434 50.3744C37.8004 49.3278 38.0596 48.2813 38.3144 47.2335C38.5215 46.3839 38.7373 45.5377 38.9259 44.6835C38.9921 44.3858 39.1189 44.2816 39.4063 44.2896C40.0569 44.3091 40.7096 44.3274 41.357 44.285C41.8178 44.2541 42.0173 44.4098 42.1257 44.8965C42.4998 46.566 42.9205 48.224 43.325 49.8855C43.3651 50.0504 43.4128 50.213 43.5516 50.3882C43.685 49.6141 43.8205 48.8412 43.9506 48.0671C44.1339 46.9782 44.3302 45.8904 44.4874 44.798C44.5405 44.4293 44.6468 44.2713 45.0274 44.2862C45.8189 44.3182 46.6126 44.2965 47.505 44.2965Z" fill="white"/>
<path d="M57.2681 44.323C58.1984 44.323 59.0789 44.323 60.0309 44.323C60.0309 45.5894 60.0309 46.833 60.0309 48.0032C60.6663 47.749 61.241 47.3929 61.8536 47.2979C63.2741 47.078 64.5319 48.0089 64.9765 49.5422C65.3907 50.9712 65.3625 52.4163 64.8539 53.8132C64.0017 56.1549 61.6888 56.622 60.0591 54.8094C60.0233 54.7693 59.9789 54.7396 59.878 54.6525C59.8487 55.0293 59.8238 55.3533 59.7967 55.7037C58.9412 55.7037 58.1193 55.7037 57.2702 55.7037C57.2681 51.8941 57.2681 48.1131 57.2681 44.323ZM62.4771 51.6342C62.4207 51.2494 62.4001 50.8842 62.308 50.5395C62.1768 50.0494 61.8894 49.6887 61.3635 49.6555C60.8084 49.6212 60.4169 49.9086 60.2196 50.4365C59.9214 51.2311 59.9409 52.0475 60.2391 52.8376C60.4213 53.3197 60.7823 53.5888 61.2963 53.575C61.7983 53.5625 62.1106 53.251 62.2581 52.7907C62.3784 52.4174 62.4088 52.012 62.4771 51.6342Z" fill="white"/>
<path d="M66.3081 52.6967C67.2135 52.5604 68.0853 52.4299 68.8009 52.3222C69.2065 52.9028 69.4992 53.4387 69.9059 53.8486C70.0696 54.0135 70.5033 53.978 70.7809 53.9013C71.4868 53.7066 71.8663 52.7654 71.6766 51.8104C71.4781 50.8073 71.0477 50.5817 69.4938 50.7146C69.535 49.9989 69.5752 49.2936 69.6142 48.5985C70.7505 48.4611 71.2298 48.0661 71.2678 47.2737C71.2938 46.7229 70.9989 46.2546 70.5467 46.1298C69.8267 45.9317 69.5079 46.2168 68.9376 47.5932C68.1178 47.426 67.2905 47.2565 66.4675 47.0893C66.4935 45.9901 67.3696 44.7969 68.4746 44.4088C69.7096 43.9759 70.9685 43.9897 72.2057 44.3996C73.2044 44.7305 73.8127 45.4817 73.9818 46.5752C74.1445 47.6275 73.7931 48.4863 72.9929 49.1378C72.9083 49.2065 72.8314 49.2867 72.7522 49.3634C72.7435 49.3726 72.7457 49.3955 72.7435 49.4115C74.2551 50.2806 74.7246 51.1611 74.4871 52.6783C74.2149 54.4142 73.2033 55.6028 71.618 55.8021C70.7007 55.9166 69.7356 55.8765 68.8248 55.7093C67.5063 55.4688 66.4599 54.1371 66.3081 52.6967Z" fill="white"/>
<path d="M50.4922 52.3865C50.5637 53.1445 50.7806 53.717 51.4268 53.9518C52.0275 54.1693 52.5534 53.9999 53.0013 53.5064C53.1054 53.3919 53.3179 53.3266 53.474 53.338C54.2471 53.3976 55.017 53.4903 55.8931 53.5819C55.4746 54.4339 54.978 55.1312 54.1875 55.4678C52.728 56.0896 51.2089 56.1377 49.7483 55.5262C48.5209 55.0121 47.9505 53.8808 47.7098 52.5548C47.3335 50.4742 48.1175 48.5002 49.7039 47.7284C51.1601 47.0196 52.6705 47.0631 54.1116 47.765C55.3423 48.3651 55.8389 49.5502 55.9983 50.9059C56.1729 52.3865 56.162 52.3876 54.772 52.3876C53.3667 52.3865 51.9603 52.3865 50.4922 52.3865ZM53.1737 50.8201C53.1368 49.7162 52.625 49.1128 51.8074 49.1494C51.0462 49.1838 50.5128 49.8891 50.5637 50.8201C51.4203 50.8201 52.278 50.8201 53.1737 50.8201Z" fill="white"/>
</g>
</g>
<defs>
<filter id="filter0_di_30_41434" x="0" y="0" width="108" height="122" filterUnits="userSpaceOnUse" color-interpolation-filters="sRGB">
<feFlood flood-opacity="0" result="BackgroundImageFix"/>
<feColorMatrix in="SourceAlpha" type="matrix" values="0 0 0 0 0 0 0 0 0 0 0 0 0 0 0 0 0 0 127 0" result="hardAlpha"/>
<feOffset dy="4"/>
<feGaussianBlur stdDeviation="2"/>
<feComposite in2="hardAlpha" operator="out"/>
<feColorMatrix type="matrix" values="0 0 0 0 0 0 0 0 0 0 0 0 0 0 0 0 0 0 0.25 0"/>
<feBlend mode="normal" in2="BackgroundImageFix" result="effect1_dropShadow_30_41434"/>
<feBlend mode="normal" in="SourceGraphic" in2="effect1_dropShadow_30_41434" result="shape"/>
<feColorMatrix in="SourceAlpha" type="matrix" values="0 0 0 0 0 0 0 0 0 0 0 0 0 0 0 0 0 0 127 0" result="hardAlpha"/>
<feOffset dy="22"/>
<feGaussianBlur stdDeviation="22"/>
<feComposite in2="hardAlpha" operator="arithmetic" k2="-1" k3="1"/>
<feColorMatrix type="matrix" values="0 0 0 0 1 0 0 0 0 1 0 0 0 0 1 0 0 0 0.2 0"/>
<feBlend mode="normal" in2="shape" result="effect2_innerShadow_30_41434"/>
</filter>
<filter id="filter1_di_30_41434" x="0" y="0" width="108" height="122" filterUnits="userSpaceOnUse" color-interpolation-filters="sRGB">
<feFlood flood-opacity="0" result="BackgroundImageFix"/>
<feColorMatrix in="SourceAlpha" type="matrix" values="0 0 0 0 0 0 0 0 0 0 0 0 0 0 0 0 0 0 127 0" result="hardAlpha"/>
<feOffset dy="4"/>
<feGaussianBlur stdDeviation="2"/>
<feComposite in2="hardAlpha" operator="out"/>
<feColorMatrix type="matrix" values="0 0 0 0 0 0 0 0 0 0 0 0 0 0 0 0 0 0 0.25 0"/>
<feBlend mode="normal" in2="BackgroundImageFix" result="effect1_dropShadow_30_41434"/>
<feBlend mode="normal" in="SourceGraphic" in2="effect1_dropShadow_30_41434" result="shape"/>
<feColorMatrix in="SourceAlpha" type="matrix" values="0 0 0 0 0 0 0 0 0 0 0 0 0 0 0 0 0 0 127 0" result="hardAlpha"/>
<feOffset dy="22"/>
<feGaussianBlur stdDeviation="22"/>
<feComposite in2="hardAlpha" operator="arithmetic" k2="-1" k3="1"/>
<feColorMatrix type="matrix" values="0 0 0 0 1 0 0 0 0 1 0 0 0 0 1 0 0 0 0.2 0"/>
<feBlend mode="normal" in2="shape" result="effect2_innerShadow_30_41434"/>
</filter>
<linearGradient id="paint0_linear_30_41434" x1="54" y1="0" x2="54" y2="100" gradientUnits="userSpaceOnUse">
<stop stop-color="#FF9029"/>
<stop offset="1" stop-color="#FF7B00"/>
</linearGradient>
<clipPath id="clip0_30_41434">
<rect width="50" height="50" fill="white" transform="translate(29 25)"/>
</clipPath>
</defs>
</svg>
