<svg width="28" height="27" viewBox="0 0 28 27" fill="none" xmlns="http://www.w3.org/2000/svg">
<path d="M6.80664 15.3938V15.3939C6.80628 15.6602 6.70008 15.9155 6.51137 16.1038C6.32266 16.2921 6.06684 16.398 5.80002 16.3983L5.79994 16.3983H4.53832H4.53825C3.60265 16.3973 2.70561 16.0262 2.04388 15.3662C1.38214 14.7062 1.00973 13.8113 1.00837 12.8777L1.00837 12.8776L1.00837 11.6188V11.6188C1.00939 10.6848 1.3816 9.78945 2.04334 9.12899C2.70507 8.46852 3.60229 8.09689 4.53823 8.09553H4.53832H5.0925C6.06567 3.6027 9.3494 0.543039 14.0005 0.543039C18.6516 0.543039 21.9341 3.60271 22.9073 8.09553L6.80664 15.3938ZM6.80664 15.3938V10.9882C6.80664 8.48736 7.51348 6.37804 8.76416 4.89503C10.014 3.41299 11.8104 2.55211 14.0005 2.55211C16.1906 2.55211 17.987 3.41268 19.2369 4.89456C20.4875 6.37741 21.1944 8.48673 21.1944 10.9882V14.7644C21.1944 16.4904 20.9479 17.7993 20.3785 18.8196C19.8171 19.8256 18.9379 20.5576 17.6549 21.1309C17.2648 20.4831 16.6759 19.9772 15.9747 19.6889C15.2569 19.3937 14.4614 19.3429 13.7117 19.5445C12.962 19.7462 12.2998 20.1889 11.8279 20.8042C11.3561 21.4193 11.1007 22.1725 11.1014 22.9471C11.0864 23.881 11.4438 24.7827 12.0949 25.4538C12.7462 26.125 13.6381 26.5105 14.5742 26.5256C15.5104 26.5407 16.4142 26.1842 17.0869 25.5344C17.7495 24.8944 18.1343 24.0216 18.1603 23.1029C19.5686 22.6095 20.796 21.7048 21.6826 20.506C22.5659 19.3115 23.0698 17.8807 23.1299 16.3983L6.80664 15.3938ZM3.02176 12.8775C3.02176 12.8775 3.02176 12.8775 3.02176 12.8775C3.02242 13.2784 3.18242 13.6627 3.4667 13.9461C3.75099 14.2296 4.13637 14.3889 4.53832 14.3893C4.53833 14.3893 4.53835 14.3893 4.53837 14.3893M3.02176 12.8775L4.53832 14.4497L4.53837 14.3893M3.02176 12.8775L3.02176 11.6188C3.02176 11.2175 3.18148 10.8325 3.46584 10.5486C3.75022 10.2646 4.13598 10.1049 4.53837 10.1046H4.79325M3.02176 12.8775L4.79325 10.1046M4.53837 14.3893L4.79325 14.3893M4.53837 14.3893L4.79325 14.3893M4.79325 14.3893V10.1046M4.79325 14.3893V10.1046M13.3703 23.7881C13.2037 23.5393 13.1148 23.2468 13.1148 22.9476V22.9476C13.1151 22.5464 13.275 22.1618 13.5593 21.8782C13.8436 21.5945 14.2292 21.4349 14.6314 21.4346C14.9313 21.4346 15.2245 21.5234 15.4739 21.6896C15.7233 21.8559 15.9177 22.0922 16.0325 22.3686C16.1472 22.6451 16.1773 22.9492 16.1187 23.2427C16.0602 23.5362 15.9158 23.8057 15.7037 24.0173C15.4917 24.2289 15.2214 24.3731 14.9272 24.4314C14.633 24.4898 14.3281 24.4599 14.0509 24.3453C13.7738 24.2308 13.5369 24.0369 13.3703 23.7881ZM23.4614 14.3905H23.2078V10.1046H23.4627C23.865 10.1049 24.2508 10.2646 24.5352 10.5486C24.8195 10.8325 24.9793 11.2175 24.9793 11.6188V12.8775C24.9789 13.2789 24.8189 13.6637 24.5343 13.9474C24.2497 14.2311 23.8638 14.3905 23.4614 14.3905Z" fill="white" stroke="white" stroke-width="0.120954"/>
</svg>
