<svg width="30" height="31" viewBox="0 0 30 31" fill="none" xmlns="http://www.w3.org/2000/svg">
<path fill-rule="evenodd" clip-rule="evenodd" d="M28.9655 5.21952C28.9655 3.18417 27.2603 1.53418 25.1567 1.53418H4.8432C2.73968 1.53418 1.03442 3.18417 1.03442 5.21952V17.504C1.03442 19.5394 2.73968 21.1894 4.8432 21.1894H6.11279C6.81396 21.1894 7.38239 20.6394 7.38239 19.9609C7.38239 19.2824 6.81396 18.7325 6.11279 18.7325H4.8432C4.14203 18.7325 3.57361 18.1825 3.57361 17.504V10.1333H26.4263V17.504C26.4263 18.1825 25.8579 18.7325 25.1567 18.7325H23.8871C23.1859 18.7325 22.6175 19.2824 22.6175 19.9609C22.6175 20.6394 23.1859 21.1894 23.8871 21.1894H25.1567C27.2603 21.1894 28.9655 19.5394 28.9655 17.504V5.21952ZM26.4263 7.67642V5.21952C26.4263 4.54108 25.8579 3.99108 25.1567 3.99108H4.8432C4.14203 3.99108 3.57361 4.54106 3.57361 5.21952V7.67642H26.4263Z" fill="white"/>
<path d="M16.8119 28.2242C16.8119 28.9098 16.2328 29.4656 15.5185 29.4656C14.8041 29.4656 14.225 28.9098 14.225 28.2242V21.2809L12.5528 22.8857C12.0476 23.3707 11.2287 23.3707 10.7235 22.8857C10.2185 22.4012 10.2185 21.615 10.7235 21.1303L14.6032 17.4145C15.1084 16.9305 15.9267 16.931 16.4315 17.4153L20.3106 21.1385C20.8159 21.6234 20.8159 22.4093 20.3106 22.8942C19.8056 23.3789 18.9865 23.3789 18.4815 22.8942L16.8119 21.2918V28.2242Z" fill="white"/>
</svg>
